<svg width="378" height="244" viewBox="0 0 378 244" fill="none" xmlns="http://www.w3.org/2000/svg">
<g clip-path="url(#clip0_1133_31891)">
<path d="M188.118 244C275.993 244 347.23 240.605 347.23 236.417C347.23 232.229 275.993 228.833 188.118 228.833C100.243 228.833 29.0059 232.229 29.0059 236.417C29.0059 240.605 100.243 244 188.118 244Z" fill="#EAE7F1"/>
<path d="M83.1083 210.801C55.4975 202.238 18.1203 159.406 33.3068 117.653C41.9493 93.897 69.0818 92.1275 90.4059 88.1825C120.043 82.6981 133.379 65.2567 153.011 43.7889C174.945 19.8023 224.76 -8.21506 268.816 29.1189C280.681 39.1712 282.572 58.6168 297.88 72.2621C313.279 85.9887 333.357 86.0519 342.392 113.225C349.433 134.4 319.123 178.45 298.584 191.576C260.598 215.856 145.37 230.107 83.1038 210.801H83.1083Z" fill="#D9C1FF" fill-opacity="0.18"/>
<path d="M359.52 123.286C359.52 123.444 359.511 123.598 359.506 123.756C359.064 142.953 356.315 157.794 352.38 169.264L342.181 174.888L350.372 174.058L350.606 174.035C345.529 186.602 339.003 194.551 332.969 199.565C329.215 202.694 325.649 204.684 322.743 205.944C322.553 206.029 322.364 206.111 322.174 206.187C321.705 206.381 321.254 206.557 320.825 206.711H315.378C315.314 206.454 315.26 206.201 315.206 205.944C315.17 205.781 315.134 205.623 315.102 205.461C315.053 205.248 315.012 205.036 314.967 204.824C309.84 179.741 318.965 160.431 330.271 146.912C330.302 146.866 330.338 146.821 330.383 146.776C334.319 142.086 338.516 138.096 342.46 134.81L344.541 141.053L345.335 132.503C352.186 127.186 357.809 124.166 359.19 123.458C359.407 123.345 359.515 123.291 359.515 123.291L359.52 123.286Z" fill="#A169FF"/>
<path d="M359.705 123.385L359.507 123.751L347.127 146.532L346.906 146.934L343.53 153.145L343.418 153.353L332.654 173.155L332.64 173.182L315.103 205.451L314.841 205.934L314.421 206.702H313.947L314.358 205.934L314.967 204.815L332.275 172.97L332.595 172.378L359.191 123.448L359.34 123.182L359.705 123.385Z" fill="white"/>
<path d="M357.69 144.473L343.359 153.263L343.55 153.575L357.881 144.785L357.69 144.473Z" fill="white"/>
<path d="M358.021 139.858L346.787 146.749L346.978 147.06L358.212 140.17L358.021 139.858Z" fill="white"/>
<path d="M330.626 146.761L330.262 146.789L332.291 173.221L332.655 173.193L330.626 146.761Z" fill="white"/>
<path d="M312.973 210.832C312.973 210.832 325.533 217.593 344.425 207.622L338.63 204.49L348.306 205.388C355.716 200.757 363.966 193.544 372.713 182.494L370.501 181.302L373.435 181.573C374.91 179.682 376.4 177.682 377.903 175.565C377.903 175.565 372.546 174.807 364.81 175.294L360.581 180.436L361.963 175.529C346.113 177.091 322.785 184.137 312.969 210.832H312.973Z" fill="#C39FFF"/>
<path d="M377.812 175.387L311.961 209.39L312.149 209.755L378 175.752L377.812 175.387Z" fill="white"/>
<path d="M360.783 184.38L360.724 184.759L369.82 186.18L369.879 185.801L360.783 184.38Z" fill="white"/>
<path d="M356.295 186.638L356.208 187.011L366.775 189.471L366.862 189.097L356.295 186.638Z" fill="white"/>
<path d="M329.255 188.132L328.953 187.753C334.567 183.266 341.287 179.889 348.937 177.718L349.068 178.183C341.481 180.336 334.816 183.686 329.255 188.132Z" fill="#1F1233"/>
<path d="M325.798 66.4435V231.763C325.798 234.069 323.93 235.943 321.619 235.943H240.371C238.064 235.943 236.191 234.069 236.191 231.763V66.4435C236.191 64.1324 238.064 62.2637 240.371 62.2637H321.619C323.93 62.2637 325.798 64.1324 325.798 66.4435Z" fill="#8032FF"/>
<path d="M321.925 66.4435V231.763C321.925 234.069 320.057 235.943 317.746 235.943H236.497C234.191 235.943 232.318 234.069 232.318 231.763V66.4435C232.318 64.1324 234.191 62.2637 236.497 62.2637H317.746C320.057 62.2637 321.925 64.1324 321.925 66.4435Z" fill="#D9C1FF"/>
<path d="M315.77 83.5871V214.624C315.77 217.292 313.744 219.454 311.248 219.454H242.993C240.497 219.454 238.471 217.292 238.471 214.624V83.5871C238.471 80.9195 240.497 78.7573 242.993 78.7573H311.248C313.744 78.7573 315.77 80.9195 315.77 83.5871Z" fill="#EADFFD"/>
<path d="M288.412 70.2307H265.833C265.612 70.2307 265.432 70.0502 265.432 69.829C265.432 69.6078 265.612 69.4272 265.833 69.4272H288.412C288.633 69.4272 288.814 69.6078 288.814 69.829C288.814 70.0502 288.633 70.2307 288.412 70.2307Z" fill="#1F1233"/>
<path d="M297.128 165.211H257.115C254.63 165.211 252.615 167.226 252.615 169.711V171.436C252.615 173.921 254.63 175.936 257.115 175.936H297.128C299.613 175.936 301.627 173.921 301.627 171.436V169.711C301.627 167.226 299.613 165.211 297.128 165.211Z" fill="#8032FF"/>
<path d="M312.123 220.42H242.121C239.029 220.42 236.516 217.82 236.516 214.62V83.5874C236.516 80.3916 239.029 77.7871 242.121 77.7871H312.123C315.214 77.7871 317.728 80.3871 317.728 83.5874V214.624C317.728 217.82 315.214 220.424 312.123 220.424V220.42ZM242.121 79.7235C240.099 79.7235 238.452 81.4569 238.452 83.5874V214.624C238.452 216.755 240.099 218.488 242.121 218.488H312.123C314.145 218.488 315.792 216.755 315.792 214.624V83.5874C315.792 81.4569 314.145 79.7235 312.123 79.7235H242.121Z" fill="white"/>
<path d="M244.806 148.23H309.496C310.835 148.23 311.92 147.145 311.92 145.806V104.166C311.92 102.827 310.835 101.742 309.496 101.742H244.806C243.468 101.742 242.383 102.827 242.383 104.166V145.806C242.383 147.145 243.468 148.23 244.806 148.23Z" fill="#8032FF"/>
<path d="M259.885 130.157H248.236C247.875 130.157 247.582 130.45 247.582 130.811V133.055C247.582 133.416 247.875 133.709 248.236 133.709H259.885C260.246 133.709 260.539 133.416 260.539 133.055V130.811C260.539 130.45 260.246 130.157 259.885 130.157Z" fill="white"/>
<path d="M275.279 130.157H263.631C263.27 130.157 262.977 130.45 262.977 130.811V133.055C262.977 133.416 263.27 133.709 263.631 133.709H275.279C275.641 133.709 275.934 133.416 275.934 133.055V130.811C275.934 130.45 275.641 130.157 275.279 130.157Z" fill="white"/>
<path d="M290.672 130.157H279.024C278.662 130.157 278.369 130.45 278.369 130.811V133.055C278.369 133.416 278.662 133.709 279.024 133.709H290.672C291.033 133.709 291.326 133.416 291.326 133.055V130.811C291.326 130.45 291.033 130.157 290.672 130.157Z" fill="white"/>
<path d="M306.066 130.157H294.418C294.057 130.157 293.764 130.45 293.764 130.811V133.055C293.764 133.416 294.057 133.709 294.418 133.709H306.066C306.428 133.709 306.721 133.416 306.721 133.055V130.811C306.721 130.45 306.428 130.157 306.066 130.157Z" fill="white"/>
<path d="M305.921 137.104H290.6C290.158 137.104 289.801 137.461 289.801 137.902V139.857C289.801 140.298 290.158 140.656 290.6 140.656H305.921C306.363 140.656 306.72 140.298 306.72 139.857V137.902C306.72 137.461 306.363 137.104 305.921 137.104Z" fill="white"/>
<path d="M250.537 115.46V110.797C250.537 109.777 251.367 108.951 252.383 108.951H261.441C262.461 108.951 263.286 109.781 263.286 110.797V115.46C263.286 116.48 262.456 117.306 261.441 117.306H252.383C251.363 117.306 250.537 116.475 250.537 115.46ZM252.383 109.443C251.638 109.443 251.029 110.048 251.029 110.797V115.46C251.029 116.204 251.634 116.814 252.383 116.814H261.441C262.185 116.814 262.795 116.209 262.795 115.46V110.797C262.795 110.052 262.19 109.443 261.441 109.443H252.383Z" fill="white"/>
<path d="M304.574 112.481C304.574 112.422 304.597 112.368 304.642 112.323C306.678 110.287 306.678 106.969 304.642 104.934C304.556 104.848 304.556 104.703 304.642 104.618C304.728 104.532 304.872 104.532 304.958 104.618C307.17 106.829 307.17 110.431 304.958 112.643C304.872 112.729 304.728 112.729 304.642 112.643C304.597 112.598 304.574 112.544 304.574 112.485V112.481Z" fill="white"/>
<path d="M303.449 106.062C303.449 106.003 303.472 105.949 303.517 105.904C303.603 105.818 303.747 105.818 303.833 105.904C305.336 107.407 305.336 109.853 303.833 111.356C303.747 111.442 303.603 111.442 303.517 111.356C303.431 111.271 303.431 111.126 303.517 111.04C304.844 109.713 304.844 107.551 303.517 106.22C303.472 106.175 303.449 106.12 303.449 106.062Z" fill="white"/>
<path d="M302.371 110.007C302.371 109.948 302.394 109.894 302.439 109.849C303.111 109.176 303.111 108.084 302.439 107.416C302.353 107.33 302.353 107.186 302.439 107.1C302.525 107.014 302.669 107.014 302.755 107.1C303.603 107.949 303.603 109.325 302.755 110.169C302.669 110.255 302.525 110.255 302.439 110.169C302.394 110.124 302.371 110.07 302.371 110.011V110.007Z" fill="white"/>
<path d="M322.287 199.056H321.56V66.4439C321.56 64.3404 319.85 62.6252 317.742 62.6252H236.494C234.391 62.6252 232.676 64.3359 232.676 66.4439V180.026H231.949V66.4439C231.949 63.9387 233.989 61.8984 236.494 61.8984H317.742C320.247 61.8984 322.287 63.9387 322.287 66.4439V199.056Z" fill="#1F1233"/>
<path d="M245.84 236.308H236.498C233.993 236.308 231.953 234.268 231.953 231.763V212.642H232.68V231.763C232.68 233.866 234.39 235.581 236.498 235.581H245.84V236.308Z" fill="#1F1233"/>
<path d="M282.911 235.582H274.264V236.308H282.911V235.582Z" fill="#1F1233"/>
<path d="M327.645 235.216C327.645 236.466 318.474 237.482 307.169 237.482C295.864 237.482 286.693 236.466 286.693 235.216C286.693 235.193 286.698 235.171 286.702 235.148V229.027H327.631V235.135C327.64 235.162 327.645 235.189 327.645 235.216Z" fill="#FFAD32"/>
<path d="M307.165 231.347C318.474 231.347 327.641 230.333 327.641 229.081C327.641 227.83 318.474 226.815 307.165 226.815C295.857 226.815 286.689 227.83 286.689 229.081C286.689 230.333 295.857 231.347 307.165 231.347Z" fill="#FCC659"/>
<path d="M332.483 227.832C332.483 229.082 323.312 230.098 312.007 230.098C300.702 230.098 291.531 229.082 291.531 227.832C291.531 227.809 291.536 227.787 291.54 227.764V221.644H332.469V227.751C332.478 227.778 332.483 227.805 332.483 227.832Z" fill="#FFAD32"/>
<path d="M312.003 223.964C323.312 223.964 332.479 222.949 332.479 221.698C332.479 220.446 323.312 219.432 312.003 219.432C300.695 219.432 291.527 220.446 291.527 221.698C291.527 222.949 300.695 223.964 312.003 223.964Z" fill="#FCC659"/>
<path d="M327.645 220.442C327.645 221.693 318.474 222.708 307.169 222.708C295.864 222.708 286.693 221.693 286.693 220.442C286.693 220.42 286.698 220.397 286.702 220.375V214.254H327.631V220.361C327.64 220.388 327.645 220.415 327.645 220.442Z" fill="#FFAD32"/>
<path d="M307.165 216.579C318.474 216.579 327.641 215.564 327.641 214.313C327.641 213.061 318.474 212.047 307.165 212.047C295.857 212.047 286.689 213.061 286.689 214.313C286.689 215.564 295.857 216.579 307.165 216.579Z" fill="#FCC659"/>
<path d="M307.169 237.721C298.842 237.721 286.449 237.053 286.449 235.216H286.932C286.932 235.92 293.882 237.238 307.169 237.238C307.652 237.238 308.13 237.238 308.604 237.234V237.717C308.134 237.717 307.652 237.721 307.169 237.721Z" fill="#1F1233"/>
<path d="M315.288 237.536L315.266 237.053C317.337 236.954 319.242 236.818 320.917 236.647L320.967 237.13C319.283 237.301 317.374 237.437 315.288 237.536Z" fill="#1F1233"/>
<path d="M299.085 229.79C291.391 229.091 291.391 228.12 291.391 227.8H291.874C291.874 228.035 293.178 228.766 299.126 229.307L299.081 229.79H299.085Z" fill="#1F1233"/>
<path d="M312.111 230.31C309.809 230.31 307.548 230.269 305.391 230.183L305.409 229.7C309.258 229.849 313.519 229.867 317.486 229.745L317.499 230.228C315.744 230.282 313.929 230.31 312.106 230.31H312.111Z" fill="#1F1233"/>
<path d="M322.584 229.989L322.553 229.506C324.737 229.361 326.642 229.176 328.213 228.955L328.281 229.434C326.696 229.659 324.778 229.844 322.584 229.989Z" fill="#1F1233"/>
<path d="M293.4 216.24C286.576 215.545 286.576 214.664 286.576 214.335H287.059C287.059 214.335 287.235 215.125 293.45 215.761L293.4 216.244V216.24Z" fill="#1F1233"/>
<path d="M307.291 216.84C304.935 216.84 302.634 216.795 300.449 216.709L300.467 216.227C302.647 216.312 304.944 216.357 307.291 216.357C311.493 216.357 315.527 216.217 318.962 215.951L318.998 216.434C315.554 216.7 311.506 216.84 307.291 216.84Z" fill="#1F1233"/>
<path d="M334.901 213.058C334.901 214.308 325.73 215.324 314.425 215.324C303.12 215.324 293.949 214.308 293.949 213.058C293.949 213.035 293.954 213.012 293.958 212.99V206.869H334.887V212.976C334.896 213.003 334.901 213.031 334.901 213.058Z" fill="#FFAD32"/>
<path d="M314.425 209.189C325.733 209.189 334.901 208.175 334.901 206.923C334.901 205.672 325.733 204.657 314.425 204.657C303.117 204.657 293.949 205.672 293.949 206.923C293.949 208.175 303.117 209.189 314.425 209.189Z" fill="#FCC659"/>
<path d="M331.101 206.923C331.101 207.763 323.632 208.444 314.426 208.444C305.219 208.444 297.75 207.763 297.75 206.923C297.75 206.083 305.219 205.402 314.426 205.402C323.632 205.402 331.101 206.083 331.101 206.923Z" fill="#FFAD32"/>
<path d="M261.293 196.018C249.875 195.706 240.371 204.711 240.055 216.136C239.743 227.556 248.747 237.066 260.169 237.378C271.587 237.689 281.096 228.684 281.408 217.26C281.719 205.84 272.716 196.334 261.293 196.018ZM277.373 217.151C277.251 221.598 275.405 225.728 272.174 228.788C268.947 231.848 264.723 233.469 260.278 233.347C251.103 233.094 243.841 225.43 244.089 216.249C244.211 211.802 246.053 207.672 249.284 204.612C252.398 201.66 256.442 200.048 260.72 200.048C260.878 200.048 261.027 200.048 261.185 200.057C270.211 200.301 277.378 207.726 277.378 216.695C277.378 216.849 277.378 216.998 277.378 217.151H277.373Z" fill="#FCC659"/>
<path d="M277.382 216.695C277.382 216.849 277.382 216.998 277.382 217.151C277.26 221.597 275.414 225.728 272.183 228.788C268.956 231.848 264.732 233.469 260.286 233.347C251.111 233.094 243.85 225.43 244.098 216.248C244.22 211.802 246.061 207.672 249.293 204.612C252.407 201.66 256.45 200.048 260.729 200.048C260.887 200.048 261.035 200.048 261.193 200.057C270.22 200.301 277.391 207.726 277.391 216.695H277.382Z" fill="#FFAD32"/>
<path d="M259.683 229.434V226.301C257.882 226.27 256.023 225.71 254.939 224.938L255.684 222.862C256.799 223.606 258.415 224.193 260.152 224.193C262.354 224.193 263.844 222.92 263.844 221.155C263.844 219.39 262.634 218.393 260.337 217.463C257.173 216.222 255.219 214.795 255.219 212.096C255.219 209.397 257.047 207.569 259.904 207.104V203.971H261.826V206.982C263.686 207.045 264.958 207.542 265.857 208.07L265.08 210.119C264.43 209.749 263.158 209.063 261.172 209.063C258.785 209.063 257.886 210.489 257.886 211.73C257.886 213.342 259.033 214.15 261.732 215.265C264.927 216.569 266.538 218.181 266.538 220.943C266.538 223.394 264.832 225.687 261.637 226.215V229.443H259.683V229.434Z" fill="#FCC659"/>
<path d="M276.695 212.53C276.659 212.394 276.623 212.259 276.583 212.123C275.26 207.56 272.047 203.8 267.746 201.787L267.936 201.376C272.349 203.443 275.657 207.303 277.007 211.965C277.057 212.132 277.093 212.268 277.129 212.408L276.691 212.521L276.695 212.53Z" fill="#1F1233"/>
<path d="M267.751 201.791C264.294 200.17 260.363 199.809 256.671 200.771L256.559 200.333C260.35 199.344 264.393 199.719 267.945 201.38L267.755 201.791H267.751Z" fill="#1F1233"/>
<path d="M275.351 225.209L274.963 224.978C276.069 223.096 276.782 221.06 277.08 218.925L277.527 218.988C277.22 221.182 276.489 223.272 275.351 225.209Z" fill="#1F1233"/>
<path d="M274.197 201.312C272.599 199.913 270.802 198.776 268.861 197.932L269.055 197.489C271.046 198.351 272.883 199.516 274.517 200.951L274.197 201.317V201.312Z" fill="#1F1233"/>
<path d="M272.409 234.07L272.139 233.668C277.613 229.98 280.989 223.846 281.169 217.256C281.282 213.162 280.181 209.176 277.992 205.736L278.398 205.475C280.641 209 281.765 213.076 281.652 217.269C281.467 224.017 278.015 230.296 272.409 234.074V234.07Z" fill="#1F1233"/>
<path d="M312.158 113.121H311.675V103.908C311.675 102.708 310.696 101.728 309.495 101.728H268.291V101.245H309.495C310.962 101.245 312.158 102.441 312.158 103.908V113.121Z" fill="#1F1233"/>
<path d="M312.159 117.96H311.676V123.291H312.159V117.96Z" fill="#1F1233"/>
<path d="M262.971 101.241H254.572V101.724H262.971V101.241Z" fill="#1F1233"/>
<path d="M112.79 51.3811C116.139 48.6638 119.217 45.3913 120.67 41.3333C122.119 37.2754 121.622 32.3057 118.567 29.2633C116.076 26.7852 112.294 25.9457 108.805 26.3384C105.312 26.7311 102.04 28.2161 98.9261 29.8366C92.9644 32.9421 58.2771 54.4506 70.3359 61.5373C81.9435 68.3577 103.827 58.6574 112.799 51.3811H112.79Z" fill="#F8F4FF"/>
<path d="M33.0304 108.752L32.6152 108.504C37.5074 100.343 45.3872 94.8046 57.419 91.0762L57.5634 91.5366C45.6535 95.2244 37.8594 100.695 33.0349 108.752H33.0304Z" fill="#1F1233"/>
<path d="M26.7625 111.93L26.3066 111.763C32.6204 94.4031 48.8313 88.833 63.8553 85.6733L63.9546 86.1473C49.0615 89.2799 32.995 94.7913 26.7625 111.93Z" fill="#1F1233"/>
<path d="M245.466 10.8109C234.364 5.137 224.968 3.60681 215.887 5.99915L215.766 5.52971C224.968 3.10578 234.472 4.645 245.687 10.3776L245.466 10.8064V10.8109Z" fill="#1F1233"/>
<path d="M253.805 11.4205C240.961 3.25947 225.612 -4.01684 209.184 3.89592L208.977 3.45808C225.621 -4.5585 241.11 2.77649 254.071 11.0097L253.809 11.416L253.805 11.4205Z" fill="#1F1233"/>
<path d="M193.281 33.4483C181.863 33.1368 172.359 42.1419 172.043 53.5664C171.732 64.9865 180.735 74.4971 192.158 74.8086C203.576 75.12 213.085 66.1149 213.396 54.6904C213.708 43.2704 204.704 33.7642 193.281 33.4483ZM209.361 54.5821C209.24 59.0282 207.394 63.1583 204.162 66.2187C200.936 69.2791 196.711 70.8996 192.266 70.7777C183.091 70.5249 175.829 62.8604 176.078 53.6793C176.2 49.2332 178.041 45.103 181.272 42.0426C184.386 39.0906 188.43 37.4791 192.708 37.4791C192.866 37.4791 193.015 37.4791 193.173 37.4882C202.199 37.7319 209.366 45.1572 209.366 54.1262C209.366 54.2796 209.366 54.4286 209.366 54.5821H209.361Z" fill="#FCC659"/>
<path d="M209.37 54.126C209.37 54.2795 209.37 54.4285 209.37 54.5819C209.248 59.0281 207.402 63.1582 204.171 66.2186C200.944 69.279 196.72 70.8995 192.275 70.7776C183.1 70.5248 175.838 62.8603 176.086 53.6792C176.208 49.233 178.049 45.1029 181.281 42.0425C184.395 39.0904 188.438 37.479 192.717 37.479C192.875 37.479 193.024 37.479 193.182 37.488C202.208 37.7318 209.379 45.157 209.379 54.126H209.37Z" fill="#FFAD32"/>
<path d="M191.665 66.8644V63.7318C189.864 63.7002 188.005 63.1405 186.922 62.3686L187.667 60.2923C188.781 61.0371 190.397 61.6238 192.134 61.6238C194.337 61.6238 195.826 60.3509 195.826 58.586C195.826 56.8211 194.617 55.8236 192.319 54.8937C189.156 53.6524 187.202 52.226 187.202 49.5268C187.202 46.8275 189.029 44.9994 191.886 44.5345V41.4019H193.809V44.4126C195.668 44.4758 196.941 44.9723 197.839 45.4959L197.063 47.5452C196.413 47.1751 195.14 46.4889 193.154 46.4889C190.767 46.4889 189.869 47.9153 189.869 49.1566C189.869 50.7681 191.015 51.576 193.714 52.691C196.909 53.9955 198.52 55.6069 198.52 58.3694C198.52 60.8204 196.814 63.1134 193.619 63.6415V66.8689H191.665V66.8644Z" fill="#FCC659"/>
<path d="M208.712 49.9959C208.676 49.8514 208.636 49.7115 208.595 49.5716C207.282 45.0261 204.064 41.2706 199.768 39.2574L199.957 38.8467C204.371 40.914 207.679 44.7733 209.028 49.4361C209.073 49.5896 209.114 49.7341 209.15 49.8785L208.712 49.9913V49.9959Z" fill="#1F1233"/>
<path d="M199.767 39.2576C196.31 37.6372 192.374 37.276 188.687 38.2375L188.574 37.7997C192.365 36.8111 196.409 37.1858 199.961 38.8469L199.771 39.2576H199.767Z" fill="#1F1233"/>
<path d="M176.489 58.3738C175.356 54.0089 175.988 49.4634 178.267 45.5815L178.656 45.8117C176.435 49.5898 175.816 54.0134 176.922 58.2609L176.484 58.3738H176.489Z" fill="#1F1233"/>
<path d="M206.185 39.1225C204.587 37.7232 202.791 36.5858 200.85 35.7417L201.044 35.2993C203.034 36.1615 204.871 37.326 206.505 38.7614L206.185 39.1271V39.1225Z" fill="#1F1233"/>
<path d="M204.392 71.8798L204.121 71.4781C209.595 67.7903 212.971 61.656 213.152 55.0658C213.265 50.9717 212.163 46.986 209.975 43.5465L210.381 43.2847C212.624 46.81 213.747 50.886 213.635 55.0793C213.45 61.8275 209.997 68.1063 204.392 71.8798Z" fill="#1F1233"/>
<path d="M189.846 98.6913L191.678 90.8372L199.161 87.7227L200.492 98.6913C200.492 98.6913 199.382 105.819 192.5 108.369C185.617 110.924 189.846 98.6913 189.846 98.6913Z" fill="#FCB47E"/>
<path d="M186.904 78.0405C186.904 78.0405 184.241 92.8053 188.569 92.9181C192.897 93.031 196.449 91.3654 197.338 90.3633C198.227 89.3657 198.891 84.4818 198.891 84.4818C198.891 84.4818 199.446 78.1534 196.783 76.9346C194.12 75.7114 188.348 73.6034 186.904 78.045V78.0405Z" fill="#FCB47E"/>
<path d="M201.148 87.434C200.3 89.0048 199.456 90.544 199.456 90.544C198.192 90.3454 196.793 88.7656 196.545 87.4024C196.545 87.4024 192.564 87.0322 192.425 82.1031C192.425 82.1031 185.515 82.1483 185.353 76.1494C185.186 70.155 192.095 71.6987 194.383 73.5314C196.671 75.3595 198.057 76.2938 201.622 77.4449C205.368 78.6546 202.236 85.4208 201.148 87.434Z" fill="#374263"/>
<path d="M197.917 230.048L197.064 221.323H187.844L189.848 229.796C189.848 229.796 190.917 232.635 194.018 232.531C196.996 232.432 197.917 230.048 197.917 230.048Z" fill="#FCB47E"/>
<path d="M243.322 202.753L236.241 197.585L230.107 204.473L239.183 209.073C239.183 209.073 240.307 209.294 242.582 207.312C244.829 205.353 243.322 202.749 243.322 202.749V202.753Z" fill="#FCB47E"/>
<path d="M205.679 224.041C200.34 226.058 193.521 225.508 186.169 224.041C185.957 223.526 185.745 223.016 185.542 222.497C171.533 187.086 181.453 135.655 181.453 135.655H203.481L202.985 152.654C202.019 157.146 201.355 161.696 200.927 166.205C198.129 195.861 205.679 224.041 205.679 224.041Z" fill="#7A6899"/>
<path d="M205.675 224.027C205.332 223.337 192.786 197.838 196.523 169.071L200.499 172.276C199.154 199.206 205.494 223.35 205.675 224.027Z" fill="#5E4A80"/>
<path d="M241.274 193.531C239.252 199.21 237.099 203.615 234.757 206.193C233.669 207.389 232.541 208.192 231.363 208.54C227.987 206.807 224.896 204.929 222.066 202.938C221.678 202.672 221.303 202.401 220.924 202.126C220.423 201.76 219.927 201.386 219.449 201.011C219.227 200.839 219.006 200.672 218.794 200.496C218.361 200.158 217.932 199.81 217.517 199.467C217.142 199.156 216.777 198.844 216.42 198.533C214.52 196.885 212.769 195.193 211.149 193.455C210.996 193.292 210.838 193.121 210.689 192.958C210.576 192.836 210.468 192.71 210.355 192.593H210.35C188.133 167.888 192.212 135.664 192.212 135.664H211.537C213.194 166.561 241.269 193.536 241.269 193.536L241.274 193.531Z" fill="#7A6899"/>
<path d="M215.873 68.7599C214.226 67.5547 213.075 66.8912 212.795 66.6926C212.443 66.4398 212.362 65.8169 211.952 65.185C211.008 63.736 209.045 61.1767 207.019 60.468C206.757 60.3732 206.558 60.6531 206.838 60.951C207.335 61.4972 208.273 62.2826 208.129 62.4135C207.818 62.6753 205.62 60.0302 205.001 60.644C204.537 61.109 207.718 63.4652 207.592 63.6141C207.344 63.9121 204.947 61.2083 204.365 61.8222C203.81 62.3999 206.685 63.9166 206.563 64.1693C206.432 64.4312 204.442 62.7836 204.049 63.1582C203.453 63.727 207.046 65.9523 206.947 66.2818C206.82 66.8145 204.961 65.6995 204.685 66.3315C204.415 66.9228 207.014 68.0377 207.506 68.286C208.643 68.8547 209.469 68.6065 210.376 70.0238C210.877 70.8002 211.369 71.5766 211.857 72.3574L215.873 68.7599Z" fill="#FCB47E"/>
<path d="M170.359 70.5248C171.871 69.1525 172.941 68.3671 173.198 68.1414C173.519 67.8526 173.537 67.2251 173.875 66.5526C174.66 65.0134 176.335 62.2599 178.275 61.3346C178.523 61.2127 178.754 61.4655 178.505 61.795C178.072 62.3908 177.224 63.271 177.382 63.3884C177.72 63.6141 179.62 60.7523 180.302 61.294C180.816 61.7047 177.905 64.3904 178.045 64.5214C178.325 64.7922 180.414 61.8492 181.06 62.3953C181.674 62.9144 178.975 64.7245 179.128 64.9637C179.286 65.212 181.091 63.3568 181.52 63.6908C182.17 64.1918 178.839 66.7918 178.97 67.1078C179.155 67.6269 180.879 66.3179 181.222 66.9137C181.556 67.4734 179.088 68.8591 178.627 69.1571C177.558 69.8432 176.709 69.6897 175.96 71.1928C175.545 72.0188 175.139 72.8404 174.737 73.6709L170.359 70.5202V70.5248Z" fill="#FCB47E"/>
<path d="M211.739 138.178C210.015 139.275 206.996 141.054 203.277 142.593C199.942 143.965 196.043 145.157 192.004 145.509C188.082 145.852 184.02 145.401 180.211 143.568C180.455 141.762 180.685 140.228 180.879 139.004C184.372 140.855 188.163 141.631 191.922 141.74C195.889 141.857 199.825 141.221 203.345 140.304C206.563 139.469 209.437 138.395 211.667 137.434C211.685 137.682 211.712 137.93 211.739 138.178Z" fill="#5E4A80"/>
<path d="M176.587 135.836V111.52C176.587 111.52 154.739 107.809 159.031 86.6529C161.757 73.2107 171.352 68.408 171.352 68.408L176.673 72.6826C176.673 72.6826 165.359 89.9751 180.252 95.983C180.252 95.983 188.628 95.7212 190.808 98.0774C190.808 98.0774 195.605 101.919 200.669 95.5452C200.669 95.5452 205.818 93.5365 210.205 94.7191C213.815 95.6896 218.468 86.7342 209.83 71.5496L215.241 66.6611C215.241 66.6611 246.914 97.116 215.851 112.215L214.118 136.508C214.118 136.508 190.077 150.145 176.587 135.831V135.836Z" fill="#FF817B"/>
<path d="M195.588 88.287C196.54 88.287 197.312 87.515 197.312 86.5627C197.312 85.6104 196.54 84.8384 195.588 84.8384C194.635 84.8384 193.863 85.6104 193.863 86.5627C193.863 87.515 194.635 88.287 195.588 88.287Z" fill="#FCB47E"/>
<path d="M200.29 178.297C196.229 170.416 193.575 161.645 192.393 152.239L192.776 152.189C193.954 161.551 196.594 170.276 200.633 178.116L200.29 178.292V178.297Z" fill="white"/>
<path d="M210.67 150.465C204.555 150.465 202.601 145.152 202.578 145.098L202.939 144.967C202.957 145.021 204.871 150.234 210.954 150.076L210.963 150.46C210.864 150.46 210.765 150.46 210.666 150.46L210.67 150.465Z" fill="white"/>
<path d="M193.86 101.251C193.747 101.251 193.63 101.246 193.517 101.237C190.768 100.984 189.378 97.7749 189.324 97.635L189.676 97.4861C189.69 97.5177 191.035 100.623 193.553 100.853C195.67 101.047 198.007 99.2284 200.508 95.4458L200.828 95.658C198.373 99.3728 196.031 101.251 193.86 101.251Z" fill="#1F1233"/>
<path d="M176.588 111.524C176.588 111.524 154.735 107.814 159.027 86.6529C159.257 85.4974 159.546 84.396 159.876 83.3668C159.93 83.3082 159.989 83.2495 160.038 83.1953C159.677 87.971 159.506 92.1553 161.622 96.6781C166.045 106.139 176.89 111.497 176.588 111.52V111.524Z" fill="#FF5951"/>
<path d="M215.846 112.219L214.113 136.513C214.113 136.513 209.122 139.347 202.406 141.076C203.566 140.196 208.454 132.721 209.271 128.943C210.737 122.168 210.922 118.268 211.112 111.05C218.342 109.172 226.578 102.803 229.412 92.1733C230.058 99.4226 226.98 106.803 215.846 112.219Z" fill="#FF5951"/>
<path d="M192.75 139.826C192.682 139.826 192.646 139.826 192.637 139.826L192.646 139.442C192.75 139.442 202.904 139.587 211.695 134.224L211.894 134.554C203.504 139.668 193.887 139.83 192.75 139.83V139.826Z" fill="#1F1233"/>
<path d="M234.756 206.188C233.668 207.384 232.54 208.188 231.362 208.535C227.986 206.802 224.895 204.924 222.065 202.934C221.677 202.667 221.302 202.396 220.923 202.121C220.422 201.755 219.926 201.381 219.447 201.006C219.226 200.835 219.005 200.668 218.793 200.492C218.36 200.153 217.931 199.806 217.516 199.462C217.141 199.151 216.776 198.84 216.419 198.528C214.519 196.881 212.768 195.188 211.148 193.45C210.994 193.288 210.836 193.116 210.687 192.954C210.575 192.832 210.466 192.705 210.354 192.588C223.568 203.511 232.021 205.741 234.751 206.193L234.756 206.188Z" fill="#5E4A80"/>
<path d="M238.413 192.755C229.111 186.716 223.199 175.797 223.141 175.689L223.461 175.517C223.52 175.625 229.387 186.459 238.611 192.448L238.413 192.751V192.755Z" fill="white"/>
<path d="M199.08 236.996H178.162C177.436 236.996 176.854 236.377 176.908 235.651C176.908 235.642 176.908 235.632 176.908 235.623C176.921 235.465 176.944 235.298 176.966 235.136C177.039 234.581 177.188 234.021 177.449 233.673C178.442 232.355 180.365 231.755 183.799 230.396C185.952 229.539 187.78 228.401 188.583 227.869C188.845 227.693 189.183 227.738 189.409 227.954C193.547 231.999 196.084 231.137 196.846 229.471C197.429 228.198 198.25 228.465 198.476 228.839C199.171 230.004 199.554 233.421 199.708 235.136C199.726 235.321 199.744 235.488 199.753 235.623C199.775 235.944 199.794 236.138 199.794 236.138C199.87 236.585 199.527 236.996 199.076 236.996H199.08Z" fill="#1F1233"/>
<path d="M184.986 232.595C183.501 231.872 183.723 230.338 183.723 230.324L184.079 230.378C184.07 230.433 183.903 231.665 185.14 232.265L184.982 232.59L184.986 232.595Z" fill="white"/>
<path d="M183.149 233.213C181.781 232.441 181.93 231.11 181.935 231.056L182.296 231.101C182.291 231.146 182.178 232.252 183.329 232.902L183.149 233.218V233.213Z" fill="white"/>
<path d="M194.955 232.302C193.556 232.302 192.288 231.665 192.27 231.652L192.437 231.327C192.468 231.345 195.641 232.938 197.275 230.907L197.56 231.132C196.842 232.026 195.872 232.297 194.96 232.297L194.955 232.302Z" fill="white"/>
<path d="M197.211 235.366H185.021V235.727H197.211V235.366Z" fill="white"/>
<path d="M183.457 235.366H180.572V235.727H183.457V235.366Z" fill="white"/>
<path d="M249.56 204.013L239.342 222.267C238.986 222.904 238.164 223.111 237.555 222.705C237.551 222.705 237.542 222.696 237.537 222.692C237.402 222.601 237.271 222.502 237.135 222.403C236.689 222.064 236.273 221.662 236.102 221.265C235.439 219.758 235.854 217.785 236.346 214.124C236.653 211.827 236.549 209.683 236.481 208.712C236.458 208.401 236.662 208.125 236.959 208.035C242.51 206.401 242.998 203.765 241.915 202.285C241.089 201.156 241.721 200.565 242.158 200.551C243.517 200.511 246.681 201.842 248.251 202.551C248.427 202.623 248.581 202.691 248.707 202.749C248.996 202.885 249.172 202.966 249.172 202.966C249.601 203.115 249.786 203.616 249.569 204.013H249.56Z" fill="#1F1233"/>
<path d="M236.928 214.355C236.581 214.355 236.328 214.305 236.301 214.301L236.373 213.944C236.373 213.944 237.881 214.242 238.621 213.276L238.91 213.497C238.359 214.215 237.506 214.355 236.924 214.355H236.928Z" fill="white"/>
<path d="M236.76 216.332C236.413 216.332 236.16 216.282 236.133 216.278L236.205 215.921C236.205 215.921 237.713 216.219 238.453 215.253L238.742 215.474C238.191 216.192 237.338 216.332 236.756 216.332H236.76Z" fill="white"/>
<path d="M241.932 207.362L241.697 207.087C241.724 207.065 244.406 204.731 243.142 202.451L243.458 202.275C244.861 204.817 241.959 207.335 241.927 207.362H241.932Z" fill="white"/>
<path d="M246.954 205.237L241.113 215.938L241.43 216.112L247.271 205.41L246.954 205.237Z" fill="white"/>
<path d="M240.364 217.312L238.982 219.844L239.299 220.017L240.681 217.485L240.364 217.312Z" fill="white"/>
<path d="M180.184 96.222C179.994 96.1679 175.531 94.8589 173.211 90.5933C171.614 87.6503 171.451 84.0437 172.733 79.8774L173.193 80.0219C171.952 84.0573 172.101 87.5329 173.631 90.3586C175.847 94.4436 180.27 95.7436 180.31 95.7571L180.179 96.222H180.184Z" fill="#1F1233"/>
<path d="M191.508 82.3871C189.824 82.3871 187.175 81.6694 185.789 79.9406C184.932 78.8708 184.232 76.9795 185.776 74.0591L186.096 74.2261C184.932 76.4334 184.923 78.2795 186.074 79.7149C187.68 81.7191 191.07 82.2923 192.379 81.9357L192.473 82.2878C192.216 82.3555 191.887 82.3961 191.508 82.3961V82.3871Z" fill="#374263"/>
<path d="M189.95 82.7392C188.786 82.7392 187.391 82.4188 185.875 81.4167L186.074 81.1143C190.041 83.7323 193.082 81.4754 193.109 81.4528L193.331 81.7417C193.331 81.7417 191.986 82.7392 189.946 82.7392H189.95Z" fill="#374263"/>
<path d="M15.858 142.677C15.858 142.813 15.8625 142.948 15.8671 143.083C16.2507 159.74 18.6336 172.613 22.0499 182.562L30.8955 187.441L23.792 186.719L23.5889 186.701C27.9936 197.602 33.653 204.499 38.8881 208.85C42.1421 211.563 45.238 213.292 47.7563 214.384C47.9233 214.456 48.0858 214.529 48.2482 214.592C48.6544 214.763 49.047 214.912 49.4171 215.048H54.1423C54.1964 214.826 54.2461 214.605 54.2912 214.384C54.3228 214.244 54.3544 214.104 54.3815 213.964C54.4266 213.779 54.4627 213.594 54.4988 213.414C58.9442 191.657 51.0283 174.902 41.2214 163.175C41.1943 163.134 41.1627 163.098 41.1266 163.057C37.7148 158.99 34.0727 155.528 30.6518 152.675L28.8466 158.092L28.1561 150.676C22.2124 146.063 17.3338 143.445 16.1378 142.831C15.9528 142.736 15.8535 142.686 15.8535 142.686L15.858 142.677Z" fill="#A169FF"/>
<path d="M15.6953 142.763L15.8713 143.079L26.6079 162.845L26.8019 163.193L29.7309 168.582L29.8302 168.763L39.1632 185.938L39.1767 185.96L54.3903 213.96L54.6204 214.375L54.9815 215.043H55.3967L55.0356 214.375L54.5076 213.405L39.4927 185.78L39.2128 185.265L16.1421 142.817L16.0157 142.587L15.6953 142.763Z" fill="white"/>
<path d="M17.4523 161.042L17.2871 161.312L29.7212 168.938L29.8864 168.669L17.4523 161.042Z" fill="white"/>
<path d="M17.1613 157.037L16.9961 157.307L26.741 163.284L26.9062 163.015L17.1613 157.037Z" fill="white"/>
<path d="M40.6483 187.378L42.4449 164.574L42.0928 164.547L40.3008 187.355L40.6483 187.378Z" fill="white"/>
<path d="M56.412 219.589C56.412 219.589 45.5175 225.452 29.1261 216.808L34.1536 214.091L25.7594 214.867C19.3283 210.85 12.1751 204.594 4.58411 195.006L6.50216 193.973L3.95679 194.207C2.67509 192.569 1.38435 190.831 0.0800781 188.994C0.0800781 188.994 4.72401 188.335 11.4394 188.759L15.1086 193.219L13.9126 188.962C27.6639 190.321 47.9004 196.428 56.4165 219.589H56.412Z" fill="#C39FFF"/>
<path d="M0.159695 188.843L-0.00390625 189.16L57.1249 218.659L57.2885 218.342L0.159695 188.843Z" fill="white"/>
<path d="M14.9295 196.648L7.03711 197.881L7.08866 198.211L14.981 196.978L14.9295 196.648Z" fill="white"/>
<path d="M18.8411 198.597L9.67188 200.731L9.74757 201.057L18.9168 198.923L18.8411 198.597Z" fill="white"/>
<path d="M151.066 152.929H51.3408C48.8981 152.929 46.918 154.909 46.918 157.352V225.254C46.918 227.697 48.8981 229.677 51.3408 229.677H151.066C153.508 229.677 155.489 227.697 155.489 225.254V157.352C155.489 154.909 153.508 152.929 151.066 152.929Z" fill="#B385FF"/>
<path d="M152.194 160.895V221.715C152.194 224.288 150.109 226.378 147.532 226.378H140.497V160.178H52.9071C51.8195 160.178 50.9395 159.298 50.9395 158.21C50.9395 157.122 51.8195 156.242 52.9071 156.242H147.532C150.105 156.242 152.194 158.327 152.194 160.904V160.895Z" fill="#E3D2FF"/>
<path d="M125.586 153.926C125.681 154.044 125.78 154.161 125.87 154.283C128.587 157.799 129.774 162.169 129.21 166.583C128.646 170.993 126.403 174.92 122.882 177.642C115.621 183.257 105.146 181.917 99.5319 174.649C96.815 171.133 95.6236 166.768 96.1877 162.354C96.7338 158.097 98.8459 154.288 102.154 151.584C102.276 151.484 102.393 151.394 102.52 151.295C109.664 145.77 119.908 146.98 125.59 153.926H125.586Z" fill="#FFAD32"/>
<path d="M111.653 177.421V174.288C109.853 174.257 107.993 173.697 106.91 172.925L107.655 170.849C108.77 171.594 110.385 172.18 112.123 172.18C114.325 172.18 115.814 170.908 115.814 169.143C115.814 167.378 114.605 166.38 112.308 165.45C109.144 164.209 107.19 162.783 107.19 160.083C107.19 157.384 109.018 155.556 111.875 155.091V151.958H113.797V154.969C115.656 155.032 116.929 155.529 117.827 156.057L117.051 158.106C116.401 157.736 115.128 157.05 113.143 157.05C110.755 157.05 109.857 158.476 109.857 159.718C109.857 161.329 111.003 162.137 113.702 163.252C116.898 164.557 118.509 166.168 118.509 168.931C118.509 171.382 116.803 173.675 113.608 174.203V177.43H111.653V177.421Z" fill="#FCC659"/>
<path d="M117.935 144.452C106.887 141.559 95.582 148.171 92.6892 159.226C89.7963 170.276 96.4079 181.583 107.46 184.476C118.508 187.37 129.814 180.757 132.706 169.702C135.599 158.653 128.988 147.345 117.935 144.452ZM128.807 168.682C127.679 172.984 124.948 176.591 121.108 178.834C117.272 181.082 112.79 181.7 108.485 180.572C99.6077 178.247 94.2732 169.129 96.5975 160.246C97.7257 155.944 100.452 152.338 104.292 150.09C107.993 147.923 112.298 147.273 116.464 148.239C116.617 148.275 116.762 148.311 116.915 148.352C125.653 150.636 130.951 159.492 128.915 168.231C128.879 168.38 128.848 168.524 128.807 168.673V168.682Z" fill="#FCC659"/>
<path d="M82.385 128.333C70.9669 128.022 61.4624 137.027 61.1465 148.451C60.8351 159.871 69.8387 169.382 81.2612 169.693C92.6792 170.005 102.188 161 102.5 149.575C102.811 138.155 93.8075 128.649 82.385 128.333ZM98.465 149.467C98.3431 153.913 96.4973 158.043 93.2659 161.104C90.0391 164.164 85.8149 165.784 81.3695 165.662C72.1945 165.41 64.933 157.745 65.1812 148.564C65.303 144.118 67.1444 139.988 70.3757 136.927C73.4897 133.975 77.5334 132.364 81.8118 132.364C81.9697 132.364 82.1187 132.364 82.2766 132.373C91.3027 132.617 98.4695 140.042 98.4695 149.011C98.4695 149.164 98.4695 149.313 98.4695 149.467H98.465Z" fill="#FCC659"/>
<path d="M94.7108 138.466C94.8055 138.584 94.9048 138.701 94.9951 138.823C97.7119 142.339 98.8989 146.709 98.3347 151.123C97.7706 155.533 95.5276 159.46 92.0074 162.182C84.7459 167.797 74.2711 166.457 68.6569 159.189C65.94 155.673 64.7486 151.308 65.3127 146.894C65.8588 142.637 67.9709 138.828 71.279 136.124C71.4008 136.024 71.5182 135.934 71.6445 135.835C78.7887 130.31 89.0333 131.52 94.7153 138.466H94.7108Z" fill="#FFAD32"/>
<path d="M80.7745 161.744V158.612C78.9738 158.58 77.1144 158.02 76.0312 157.249L76.7759 155.172C77.8906 155.917 79.5063 156.504 81.2438 156.504C83.4462 156.504 84.9355 155.231 84.9355 153.466C84.9355 151.701 83.726 150.703 81.4289 149.774C78.2652 148.532 76.3111 147.106 76.3111 144.407C76.3111 141.707 78.1388 139.879 80.9956 139.414V136.282H82.9182V139.292C84.7775 139.356 86.0502 139.852 86.9483 140.38L86.1721 142.43C85.5222 142.059 84.2495 141.373 82.2638 141.373C79.8764 141.373 78.9783 142.8 78.9783 144.041C78.9783 145.652 80.1246 146.46 82.8234 147.575C86.0186 148.88 87.6298 150.491 87.6298 153.254C87.6298 155.705 85.9239 157.998 82.7286 158.526V161.753H80.7745V161.744Z" fill="#FCC659"/>
<path d="M95.2904 133.763C93.6925 132.364 91.896 131.226 89.9551 130.382L90.1492 129.94C92.1398 130.802 93.9769 131.967 95.6109 133.402L95.2904 133.768V133.763Z" fill="#1F1233"/>
<path d="M93.5012 166.52L93.2305 166.118C98.7048 162.43 102.081 156.296 102.261 149.706C102.374 145.612 101.273 141.626 99.0839 138.187L99.4901 137.925C101.733 141.45 102.857 145.526 102.744 149.719C102.559 156.468 99.1065 162.746 93.5012 166.524V166.52Z" fill="#1F1233"/>
<path d="M97.6349 144.767C97.5988 144.627 97.5582 144.487 97.5176 144.348C96.1998 139.798 92.9865 136.042 88.6855 134.029L88.8751 133.618C93.2889 135.686 96.5969 139.545 97.9463 144.208C97.9915 144.366 98.0321 144.506 98.0682 144.65L97.6304 144.763L97.6349 144.767Z" fill="#1F1233"/>
<path d="M88.6865 134.025C85.2295 132.404 81.2986 132.043 77.607 133.005L77.4941 132.567C81.2851 131.578 85.3288 131.953 88.8806 133.614L88.691 134.025H88.6865Z" fill="#1F1233"/>
<path d="M96.2866 157.447L95.8984 157.217C97.0043 155.334 97.7175 153.299 98.0154 151.164L98.4623 151.227C98.1554 153.42 97.4241 155.51 96.2866 157.447Z" fill="#1F1233"/>
<path d="M144.125 160.25H51.2054C48.8375 160.25 46.918 162.17 46.918 164.538V231.74C46.918 234.108 48.8375 236.028 51.2054 236.028H144.125C146.493 236.028 148.412 234.108 148.412 231.74V164.538C148.412 162.17 146.493 160.25 144.125 160.25Z" fill="#B385FF"/>
<path d="M85.6665 233.049H55.1402C52.843 233.049 50.9746 231.18 50.9746 228.883V223.006H51.4575V228.883C51.4575 230.914 53.1093 232.566 55.1402 232.566H85.6665V233.049Z" fill="#1F1233"/>
<path d="M102.492 232.562H93.082V233.045H102.492V232.562Z" fill="#1F1233"/>
<path d="M144.355 175.498H143.872V167.396C143.872 165.365 142.22 163.712 140.189 163.712H100.33V163.229H140.189C142.487 163.229 144.355 165.098 144.355 167.396V175.498Z" fill="#1F1233"/>
<path d="M93.158 163.229H84.168V163.712H93.158V163.229Z" fill="#1F1233"/>
<path d="M51.4576 205.14H50.9746V216.578H51.4576V205.14Z" fill="#1F1233"/>
<path d="M155.362 182.576V203.989C155.362 206.68 153.187 208.86 150.493 208.86H131.971C126.05 208.86 121.248 204.057 121.248 198.135C121.248 195.174 122.449 192.493 124.389 190.552C126.33 188.611 129.011 187.41 131.971 187.41H150.493C150.628 187.41 150.763 187.415 150.899 187.428C153.399 187.22 155.358 185.126 155.358 182.576H155.362Z" fill="#E3D2FF"/>
<path d="M134.533 201.681C136.488 199.726 136.488 196.556 134.533 194.601C132.578 192.647 129.409 192.647 127.454 194.601C125.499 196.556 125.499 199.726 127.454 201.681C129.409 203.636 132.578 203.636 134.533 201.681Z" fill="white"/>
<path d="M130.992 203.384V202.901C133.619 202.901 135.754 200.766 135.754 198.139C135.754 195.512 133.619 193.377 130.992 193.377V192.894C133.886 192.894 136.237 195.246 136.237 198.139C136.237 201.032 133.886 203.384 130.992 203.384Z" fill="#1F1233"/>
<path d="M126.231 198.139H125.748C125.748 196.74 126.294 195.422 127.283 194.429L127.626 194.772C126.728 195.67 126.231 196.866 126.231 198.139Z" fill="#1F1233"/>
<path d="M44.9413 202.247C42.3463 199.792 39.3948 197.634 36.168 195.833L36.4026 195.409C39.6611 197.228 42.6487 199.408 45.2708 201.891L44.9368 202.243L44.9413 202.247Z" fill="#1F1233"/>
<path d="M30.8792 193.292C29.1188 192.57 27.2636 191.929 25.3633 191.378L25.4987 190.913C27.4171 191.468 29.2903 192.118 31.0643 192.845L30.8792 193.292Z" fill="#1F1233"/>
<path d="M151.241 59.0097C143.397 56.8656 135.03 56.5 127.055 58.1701C123.066 58.9826 119.166 60.2465 115.488 61.9843C111.81 63.7176 108.294 65.8301 105.122 68.3804C101.94 70.9172 99.0292 73.8061 96.5199 77.0109C94.0152 80.2247 91.885 83.723 90.1836 87.4243C89.7594 88.3497 89.3848 89.2976 88.9921 90.2364C88.6582 91.1979 88.2791 92.1413 87.9812 93.1163C87.3674 95.0572 86.8304 97.0207 86.4423 99.0204C86.2527 100.018 86.0722 101.02 85.9368 102.031C85.9007 102.284 85.8646 102.537 85.8375 102.789L85.8059 103.06L85.7879 103.227C85.7653 103.453 85.7337 103.674 85.7157 103.9L81.9473 103.521C83.5313 107.538 85.5532 111.185 87.8864 114.381C89.4931 110.761 91.4924 107.52 93.7624 104.717L89.994 104.338C90.0121 104.13 90.0392 103.927 90.0617 103.724L90.0798 103.57L90.1069 103.322C90.1294 103.092 90.1655 102.857 90.1971 102.627C90.319 101.702 90.4815 100.781 90.6575 99.8645C91.0095 98.0273 91.5059 96.2263 92.07 94.4433C92.3453 93.5496 92.6929 92.6829 92.9997 91.7982C93.3608 90.9361 93.7038 90.0694 94.0919 89.2208C95.6534 85.8264 97.6076 82.6216 99.9002 79.6741C102.202 76.7355 104.874 74.0859 107.789 71.7568C110.7 69.4141 113.927 67.4777 117.303 65.8888C120.678 64.2909 124.257 63.1354 127.917 62.3906C135.233 60.8559 142.892 61.1989 150.099 63.1624L151.245 59.0232L151.241 59.0097Z" fill="#8032FF"/>
<path d="M111.541 64.0916L111.307 63.7034C112.561 62.9451 113.866 62.2364 115.183 61.6C118.473 60.0111 122.043 58.7879 125.803 57.9573C129.287 57.1764 133.051 56.8153 136.981 56.883C140.646 56.9372 144.387 57.4608 148.102 58.4313L147.989 58.8691C144.311 57.9077 140.605 57.3931 136.972 57.3389C133.073 57.2712 129.35 57.6323 125.897 58.4042C122.17 59.2257 118.631 60.4399 115.377 62.0107C114.073 62.6427 112.782 63.3468 111.537 64.0961L111.541 64.0916Z" fill="#8032FF"/>
<path d="M101.91 71.7564L101.58 71.4494C101.991 71.0116 102.429 70.5918 102.857 70.1856C103.101 69.9509 103.345 69.7161 103.589 69.4814C103.801 69.2963 104.004 69.1158 104.207 68.9398C104.699 68.5064 105.209 68.0596 105.724 67.6353L106.008 67.9828C105.498 68.3981 104.993 68.845 104.505 69.2783C104.302 69.4588 104.099 69.6349 103.896 69.8109C103.665 70.0411 103.417 70.2759 103.173 70.5106C102.754 70.9123 102.316 71.3276 101.914 71.7564H101.91Z" fill="#1F1233"/>
<path d="M87.9283 114.818L87.6936 114.502C85.6447 111.735 83.8665 108.679 82.4043 105.42L82.815 105.235C84.205 108.341 85.8884 111.261 87.8245 113.92C88.8805 111.546 90.1306 109.284 91.5432 107.19L91.9178 107.443C90.4466 109.618 89.1558 111.984 88.0817 114.462L87.9238 114.818H87.9283Z" fill="#1F1233"/>
<path d="M85.9377 103.909L85.4863 103.877C85.4863 103.832 85.8113 99.2325 87.1113 95.2197L87.5401 95.3597C86.2582 99.3183 85.9422 103.864 85.9377 103.909Z" fill="#1F1233"/>
<path d="M54.5176 195.07C43.4651 197.945 36.8309 209.239 39.7058 220.297C42.5806 231.352 53.8722 237.992 64.9292 235.112C75.9817 232.237 82.6204 220.943 79.7411 209.884C76.8663 198.83 65.5746 192.194 54.5176 195.07ZM75.8373 210.9C76.9565 215.201 76.3292 219.688 74.0772 223.52C71.8252 227.357 68.2192 230.083 63.9138 231.203C55.0321 233.509 45.9247 228.165 43.6141 219.277C42.4948 214.976 43.1176 210.493 45.3696 206.657C47.5404 202.955 50.9794 200.283 55.0862 199.096C55.2352 199.051 55.3841 199.015 55.533 198.974C64.2703 196.699 73.2197 201.84 75.7109 210.457C75.7515 210.602 75.7967 210.751 75.8328 210.895L75.8373 210.9Z" fill="#FCC659"/>
<path d="M75.7148 210.462C75.7554 210.606 75.8005 210.755 75.8367 210.9C76.9559 215.201 76.3286 219.688 74.0766 223.52C71.8245 227.357 68.2186 230.083 63.9132 231.203C55.0315 233.509 45.9241 228.165 43.6134 219.277C42.4942 214.976 43.117 210.493 45.369 206.657C47.5398 202.955 50.9787 200.283 55.0856 199.096C55.2346 199.051 55.3835 199.015 55.5324 198.974C64.2697 196.699 73.2191 201.84 75.7103 210.457L75.7148 210.462Z" fill="#FFAD32"/>
<path d="M74.2074 230.178L73.896 229.853C79.2259 224.726 81.3832 217.097 79.5193 209.943C78.8694 207.438 77.7727 205.113 76.2609 203.041L76.6264 202.775C78.1699 204.896 79.2936 207.271 79.9571 209.83C81.8571 217.138 79.6547 224.938 74.2074 230.178ZM71.4861 198.356C69.5319 196.983 67.3792 195.972 65.082 195.345L65.1994 194.912C67.5462 195.553 69.7485 196.586 71.7478 197.99L71.4906 198.36L71.4861 198.356Z" fill="#1F1233"/>
<path d="M62.2482 227.619L61.3772 224.608C59.6396 225.078 57.699 225.059 56.4399 224.617L56.5798 222.414C57.857 222.821 59.572 222.938 61.2418 222.455C63.3584 221.841 64.4325 220.207 63.9406 218.51C63.4667 216.871 62.0135 216.194 59.5494 215.937C56.1646 215.626 53.8945 214.795 53.1408 212.204C52.4278 209.73 53.6418 207.347 56.2503 206.106L55.3793 203.095L57.2252 202.562L58.0601 205.451C59.8653 204.995 61.2237 205.117 62.2347 205.375L62.0586 207.555C61.3275 207.379 59.9195 207.076 58.0104 207.627C55.7178 208.291 55.2484 209.911 55.5914 211.103C56.0382 212.651 57.3651 213.107 60.267 213.432C63.6969 213.797 65.6962 214.899 66.4634 217.548C67.1449 219.905 66.143 222.581 63.223 223.976L64.1211 227.077L62.2437 227.619H62.2482Z" fill="#FCC659"/>
<path d="M44.9824 203.528C46.5123 204.305 47.5639 205.496 48.2815 206.99C48.999 205.496 50.0551 204.3 51.585 203.524C50.0551 202.747 48.999 201.556 48.2815 200.062C47.5639 201.556 46.5123 202.752 44.9824 203.528Z" fill="#FFE6A6"/>
<path d="M51.7422 208.904C52.6314 209.356 53.2408 210.046 53.6606 210.917C54.0804 210.051 54.6897 209.356 55.5789 208.904C54.6897 208.453 54.0758 207.762 53.6606 206.891C53.2408 207.758 52.6314 208.453 51.7422 208.904Z" fill="#FFE6A6"/>
<path d="M75.6213 210.959C75.5852 210.814 75.54 210.67 75.4994 210.526C74.1861 205.989 70.9683 202.229 66.6719 200.216L66.8614 199.805C71.2752 201.873 74.5833 205.736 75.9327 210.399C75.9733 210.548 76.0184 210.693 76.0545 210.842L75.6168 210.954L75.6213 210.959Z" fill="#1F1233"/>
<path d="M66.6709 200.22C63.2139 198.6 59.283 198.238 55.5913 199.2L55.4785 198.762C59.2695 197.774 63.3132 198.148 66.865 199.809L66.6754 200.22H66.6709Z" fill="#1F1233"/>
<path d="M43.3932 219.337C42.2602 214.972 42.8921 210.426 45.1716 206.544L45.5598 206.775C43.339 210.553 42.7206 214.976 43.8265 219.224L43.3887 219.337H43.3932Z" fill="#1F1233"/>
<path d="M74.271 223.638L73.8828 223.408C74.9887 221.526 75.7019 219.49 75.9998 217.355L76.4467 217.418C76.1397 219.612 75.4085 221.702 74.271 223.638Z" fill="#1F1233"/>
<path d="M66.8828 137.447C68.4127 138.223 69.4643 139.415 70.1819 140.909C70.8994 139.415 71.9555 138.219 73.4854 137.443C71.9555 136.666 70.8994 135.475 70.1819 133.98C69.4643 135.475 68.4127 136.671 66.8828 137.447Z" fill="#FFE6A6"/>
<path d="M89.1602 156.419C90.0494 156.87 90.6588 157.561 91.0785 158.432C91.4983 157.565 92.1077 156.87 92.9969 156.419C92.1077 155.968 91.4938 155.277 91.0785 154.406C90.6588 155.272 90.0494 155.968 89.1602 156.419Z" fill="#FFE6A6"/>
<path d="M180.744 40.8275C182.274 41.6038 183.326 42.7955 184.043 44.2896C184.761 42.7955 185.817 41.5993 187.347 40.823C185.817 40.0466 184.761 38.8549 184.043 37.3608C183.326 38.8549 182.274 40.0511 180.744 40.8275Z" fill="#FFE6A6"/>
<path d="M268.473 221.86C270.003 222.636 271.054 223.828 271.772 225.322C272.489 223.828 273.545 222.632 275.075 221.855C273.545 221.079 272.489 219.887 271.772 218.393C271.054 219.887 270.003 221.083 268.473 221.86Z" fill="#FFE6A6"/>
<path d="M266.244 232.223C267.133 232.674 267.743 233.365 268.163 234.236C268.582 233.37 269.192 232.674 270.081 232.223C269.192 231.772 268.578 231.081 268.163 230.21C267.743 231.077 267.133 231.772 266.244 232.223Z" fill="#FFE6A6"/>
</g>
<defs>
<clipPath id="clip0_1133_31891">
<rect width="378" height="244" fill="white"/>
</clipPath>
</defs>
</svg>
