<svg width="344" height="285" viewBox="0 0 344 285" fill="none" xmlns="http://www.w3.org/2000/svg">
<g clip-path="url(#clip0_1133_32265)">
<path d="M139.526 236.628C139.581 246.13 146.86 253.786 155.778 253.738L158.954 253.717L158.749 219.312L155.572 219.333C146.654 219.388 139.464 227.133 139.526 236.628Z" fill="#E0E0E0"/>
<path d="M171.084 248.607C164.409 255.364 153.514 255.426 146.757 248.751C140 242.076 139.938 231.181 146.613 224.424C153.288 217.667 164.182 217.605 170.94 224.28C177.697 230.955 177.759 241.849 171.084 248.607Z" fill="#E6E6E6"/>
<path d="M164.969 248.856C171.786 245.477 174.572 237.211 171.193 230.395C167.813 223.579 159.548 220.792 152.732 224.171C145.915 227.551 143.129 235.816 146.508 242.632C149.888 249.449 158.153 252.235 164.969 248.856Z" fill="#EBEBEB"/>
<path d="M161.006 241.951C160.285 242.493 159.435 242.775 158.46 242.809L158.392 243.262C158.358 243.488 158.241 243.68 158.049 243.824C157.857 243.975 157.644 244.03 157.418 243.996C157.191 243.961 157.013 243.845 156.883 243.653C156.752 243.461 156.704 243.248 156.745 243.008L156.807 242.61C155.97 242.37 155.277 241.993 154.728 241.478C154.173 240.963 153.809 240.401 153.638 239.783C153.562 239.488 153.535 239.255 153.562 239.07C153.596 238.83 153.72 238.638 153.919 238.487C154.118 238.343 154.344 238.288 154.598 238.322C154.804 238.357 154.969 238.439 155.106 238.583C155.243 238.727 155.332 238.898 155.373 239.104C155.442 239.523 155.641 239.886 155.956 240.195C156.279 240.511 156.656 240.751 157.095 240.915L157.761 237.08C156.814 236.607 156.094 236.072 155.607 235.482C155.113 234.892 154.934 234.185 155.058 233.355C155.188 232.518 155.579 231.86 156.245 231.373C156.91 230.892 157.754 230.666 158.776 230.687L158.831 230.309C158.865 230.083 158.975 229.891 159.167 229.747C159.352 229.596 159.558 229.541 159.771 229.575C159.997 229.61 160.182 229.726 160.326 229.925C160.471 230.124 160.519 230.337 160.484 230.563L160.429 230.92C161.383 231.167 162.103 231.558 162.577 232.093C163.05 232.635 163.235 233.252 163.132 233.945C163.091 234.206 162.975 234.412 162.782 234.563C162.59 234.714 162.371 234.769 162.131 234.727C161.918 234.693 161.74 234.597 161.616 234.439C161.486 234.281 161.431 234.089 161.438 233.87C161.438 233.616 161.328 233.362 161.102 233.129C160.875 232.889 160.56 232.697 160.148 232.553L159.551 235.955C161.609 236.998 162.522 238.295 162.282 239.852C162.151 240.703 161.726 241.396 161.006 241.938V241.951ZM157.02 234.371C157.226 234.638 157.575 234.926 158.069 235.221L158.529 232.333C158.015 232.333 157.61 232.443 157.315 232.649C157.02 232.855 156.841 233.136 156.787 233.499C156.739 233.808 156.814 234.103 157.02 234.371ZM159.977 240.668C160.32 240.401 160.519 240.078 160.58 239.694C160.628 239.386 160.553 239.077 160.354 238.768C160.155 238.459 159.785 238.151 159.249 237.835L158.721 241.142C159.215 241.094 159.64 240.936 159.977 240.675V240.668Z" fill="#FAFAFA"/>
<path d="M149.48 226.09C155.243 220.924 164.099 221.404 169.265 227.16C174.431 232.923 173.951 241.78 168.195 246.945C172.86 241.615 172.812 233.636 168.078 228.361C162.912 222.598 154.049 222.118 148.293 227.29C148.663 226.865 149.061 226.467 149.48 226.09Z" fill="#E0E0E0"/>
<path d="M236.065 190.452C236.813 197.394 242.706 202.45 249.223 201.744L251.542 201.49L248.825 176.347L246.507 176.601C239.989 177.307 235.311 183.502 236.065 190.445V190.452Z" fill="#E0E0E0"/>
<path d="M260.036 196.852C255.659 202.292 247.701 203.15 242.26 198.773C236.82 194.396 235.962 186.438 240.339 180.998C244.716 175.557 252.674 174.7 258.115 179.077C263.555 183.454 264.412 191.412 260.036 196.852Z" fill="#E6E6E6"/>
<path d="M251.663 198.952C257.194 198.13 261.013 192.98 260.191 187.448C259.369 181.917 254.219 178.098 248.687 178.92C243.155 179.742 239.337 184.893 240.159 190.424C240.981 195.956 246.131 199.774 251.663 198.952Z" fill="#EBEBEB"/>
<path d="M252.173 192.736C251.686 193.182 251.089 193.456 250.376 193.552L250.362 193.888C250.355 194.06 250.287 194.204 250.15 194.327C250.019 194.451 249.868 194.506 249.697 194.499C249.525 194.492 249.388 194.423 249.278 194.293C249.169 194.163 249.121 194.005 249.127 193.833L249.141 193.538C248.517 193.429 247.975 193.202 247.536 192.866C247.09 192.53 246.788 192.146 246.61 191.707C246.527 191.501 246.493 191.329 246.5 191.192C246.507 191.014 246.582 190.863 246.719 190.739C246.857 190.616 247.014 190.561 247.206 190.568C247.357 190.575 247.488 190.629 247.598 190.719C247.707 190.815 247.79 190.931 247.831 191.075C247.913 191.377 248.085 191.624 248.338 191.83C248.592 192.036 248.894 192.18 249.223 192.269L249.422 189.415C248.695 189.141 248.133 188.798 247.728 188.407C247.323 188.009 247.138 187.508 247.172 186.891C247.207 186.266 247.447 185.759 247.893 185.354C248.338 184.956 248.942 184.723 249.697 184.661L249.711 184.38C249.717 184.208 249.786 184.064 249.916 183.941C250.04 183.817 250.184 183.762 250.349 183.769C250.52 183.776 250.664 183.851 250.781 183.982C250.897 184.119 250.952 184.27 250.945 184.441L250.932 184.709C251.652 184.819 252.201 185.052 252.592 185.409C252.983 185.766 253.161 186.205 253.134 186.719C253.127 186.918 253.052 187.076 252.921 187.199C252.791 187.323 252.633 187.378 252.455 187.371C252.297 187.364 252.16 187.302 252.057 187.199C251.954 187.09 251.892 186.959 251.885 186.795C251.872 186.609 251.769 186.431 251.583 186.28C251.398 186.122 251.151 186.006 250.842 185.93L250.657 188.462C252.242 189.065 253.003 189.95 252.949 191.11C252.914 191.741 252.654 192.283 252.173 192.729V192.736ZM248.688 187.494C248.86 187.68 249.134 187.858 249.518 188.036L249.642 185.889C249.265 185.93 248.976 186.04 248.778 186.211C248.579 186.383 248.469 186.602 248.455 186.87C248.441 187.103 248.524 187.309 248.688 187.487V187.494ZM251.323 191.878C251.549 191.659 251.673 191.405 251.686 191.123C251.7 190.89 251.618 190.671 251.453 190.465C251.288 190.252 250.993 190.053 250.575 189.868L250.438 192.324C250.801 192.255 251.096 192.104 251.323 191.885V191.878Z" fill="#F5F5F5"/>
<path d="M242.561 181.999C246.389 177.787 252.9 177.478 257.112 181.306C261.324 185.134 261.633 191.645 257.805 195.857C260.817 191.611 260.186 185.779 256.33 182.281C252.118 178.452 245.607 178.768 241.779 182.973C242.019 182.637 242.28 182.315 242.555 182.006L242.561 181.999Z" fill="#E0E0E0"/>
<path d="M52.9202 228.381C52.9065 228.052 51.8088 195.623 46.5332 190.491C41.4016 185.504 35.5155 190.306 35.2685 190.512L34.7402 189.881C34.8088 189.826 41.4565 184.399 47.1163 189.901C52.6321 195.259 53.7091 227.009 53.7503 228.361L52.9271 228.388L52.9202 228.381Z" fill="#E0E0E0"/>
<path d="M53.3739 234.762C53.3328 234.371 49.7654 195.822 63.8497 179.666L64.474 180.208C50.6298 196.097 54.1629 234.295 54.204 234.679L53.3808 234.762H53.3739Z" fill="#E0E0E0"/>
<path d="M52.8522 230.68L52.0289 230.625C52.0564 230.186 54.7868 186.801 44.4551 177.299L45.0108 176.688C55.6237 186.451 52.9688 228.875 52.8453 230.673L52.8522 230.68Z" fill="#E0E0E0"/>
<path d="M54.1963 230.658H53.373C53.3799 229.457 53.7161 201.344 61.7015 196.768C63.4784 195.752 65.214 195.581 66.8674 196.267C71.6971 198.263 74.0913 206.859 74.1874 207.223L73.3916 207.443C73.371 207.36 71.0042 198.874 66.5518 197.035C65.1454 196.452 63.6567 196.61 62.1131 197.495C54.5324 201.838 54.2032 230.384 54.2032 230.672L54.1963 230.658Z" fill="#E0E0E0"/>
<path d="M51.0889 230.678L50.2656 230.63C50.2794 230.411 51.4731 208.417 45.532 200.664C44.0913 198.785 42.534 197.893 40.8807 198.009C36.9909 198.284 33.7322 203.971 33.6979 204.033L32.9775 203.628C33.1216 203.381 36.49 197.495 40.8189 197.193C42.7604 197.056 44.5647 198.057 46.1837 200.17C52.3032 208.163 51.1369 229.766 51.082 230.685L51.0889 230.678Z" fill="#E0E0E0"/>
<path d="M52.3924 233.67C52.2277 231.536 48.5094 181.319 55.0542 172.469L55.7196 172.956C49.3601 181.559 53.1744 233.087 53.2156 233.601L52.3924 233.663V233.67Z" fill="#E0E0E0"/>
<path d="M68.6444 201.352C68.6444 201.352 64.7202 202.799 65.8865 206.216C67.0528 209.632 79.4631 215.251 79.4631 215.251C79.4631 215.251 84.6633 210.49 79.8885 202.738C75.1137 194.992 68.7473 198.903 68.6444 201.352Z" fill="#EBEBEB"/>
<path d="M51.5828 194.849C51.5828 194.849 55.7608 194.67 56.0009 198.279C56.241 201.881 46.9452 211.849 46.9452 211.849C46.9452 211.849 40.3113 209.454 41.7382 200.46C43.1652 191.473 50.5469 192.633 51.5828 194.849Z" fill="#EBEBEB"/>
<path d="M48.0429 177.608C48.0429 177.608 50.8283 177.306 50.6019 175.612C50.3755 173.917 39.7693 169.547 33.5127 176.607C33.5127 176.607 37.5191 183.487 43.3162 183.584C49.1063 183.673 48.0429 177.608 48.0429 177.608Z" fill="#EBEBEB"/>
<path d="M53.2356 173.485C53.2356 173.485 50.7109 174.706 50.0043 173.149C49.2977 171.592 55.9866 162.275 65.0354 164.958C65.0354 164.958 65.2755 172.923 60.4046 176.058C55.5338 179.2 53.2287 173.485 53.2287 173.485H53.2356Z" fill="#EBEBEB"/>
<path d="M40.0436 199.981C40.0436 199.981 41.9645 198.43 39.8926 197.669C37.814 196.914 27.6332 197.127 27.5303 207.212C27.5303 207.212 39.3918 209.181 40.86 205.339C42.3281 201.497 40.0504 199.974 40.0504 199.974L40.0436 199.981Z" fill="#EBEBEB"/>
<path d="M64.2265 177.354C64.2265 177.354 62.3056 175.803 64.3774 175.042C66.4561 174.287 76.6369 174.5 76.7398 184.585C76.7398 184.585 64.8783 186.554 63.4101 182.712C61.942 178.87 64.2197 177.347 64.2197 177.347L64.2265 177.354Z" fill="#EBEBEB"/>
<path d="M57.9559 185.483C57.9559 185.483 57.7844 183.597 59.3074 184.337C60.8304 185.078 66.1403 190.807 60.6383 196.24C60.6383 196.24 53.2291 190.752 54.5668 187.898C55.9046 185.044 57.9559 185.49 57.9559 185.49V185.483Z" fill="#EBEBEB"/>
<path d="M38.322 188.174C38.322 188.174 39.4745 186.664 37.7869 186.479C36.1061 186.294 28.5597 188.304 30.3159 195.837C30.3159 195.837 39.5088 195.144 39.8998 192.016C40.2909 188.887 38.322 188.167 38.322 188.167V188.174Z" fill="#EBEBEB"/>
<path d="M61.9283 245.21H43.3848L38.4521 222.461H66.3875L61.9283 245.21Z" fill="#F0F0F0"/>
<path d="M67.9989 222.132H36.7705V228.677H67.9989V222.132Z" fill="#E6E6E6"/>
<path d="M295.908 30.5977H226.913V173.348H295.908V30.5977Z" fill="#EBEBEB"/>
<path d="M291.757 34.748H231.057V169.204H291.757V34.748Z" fill="#FAFAFA"/>
<path d="M254.883 169.197H273.125L290.255 34.748H272.013L254.883 169.197Z" fill="#F0F0F0"/>
<path d="M263.534 34.748L246.403 169.197H250.828L267.959 34.748H263.534Z" fill="#F0F0F0"/>
<path d="M296.78 34.0622H226.036L224.547 30.5771H298.275L296.78 34.0622Z" fill="#E0E0E0"/>
<path d="M296.78 36.0798H226.036L224.547 32.5947H298.275L296.78 36.0798Z" fill="#EBEBEB"/>
<path d="M296.779 38.0895H226.035L224.546 34.6113H298.274L296.779 38.0895Z" fill="#E6E6E6"/>
<path d="M296.779 40.1061H226.035L224.546 36.6279H298.274L296.779 40.1061Z" fill="#E0E0E0"/>
<path d="M222.79 72.9674C222.344 72.9674 221.987 72.6107 221.987 72.1647V45.0663C221.987 44.6272 222.351 44.2705 222.79 44.2705C223.236 44.2705 223.593 44.6272 223.593 45.0732V72.1647C223.593 72.6107 223.236 72.9674 222.79 72.9674Z" fill="#E0E0E0"/>
<path d="M223.078 29.9258H222.495V46.0133H223.078V29.9258Z" fill="#E0E0E0"/>
<path d="M300.847 26.2139H221.974V30.8583H300.847V26.2139Z" fill="#EBEBEB"/>
<path d="M315.076 203.224H191.075C188.859 203.224 187.055 201.42 187.055 199.204V18.5915C187.055 16.3756 188.859 14.5713 191.075 14.5713H315.076C317.292 14.5713 319.096 16.3756 319.096 18.5915V199.204C319.096 201.42 317.292 203.224 315.076 203.224ZM191.082 14.7359C188.962 14.7359 187.233 16.4647 187.233 18.5846V199.204C187.233 201.324 188.962 203.053 191.082 203.053H315.083C317.203 203.053 318.931 201.324 318.931 199.204V18.5915C318.931 16.4716 317.203 14.7428 315.083 14.7428H191.082V14.7359Z" fill="#E0E0E0"/>
<path d="M151.827 203.224H27.8327C25.6168 203.224 23.8125 201.42 23.8125 199.204V18.5915C23.8125 16.3756 25.6168 14.5713 27.8327 14.5713H151.827C154.043 14.5713 155.847 16.3756 155.847 18.5915V199.204C155.847 201.42 154.043 203.224 151.827 203.224ZM27.8327 14.7359C25.7128 14.7359 23.984 16.4647 23.984 18.5846V199.204C23.984 201.324 25.7128 203.053 27.8327 203.053H151.827C153.947 203.053 155.676 201.324 155.676 199.204V18.5915C155.676 16.4716 153.947 14.7428 151.827 14.7428H27.8327V14.7359Z" fill="#E0E0E0"/>
<path d="M343.018 245.12H0V245.292H343.018V245.12Z" fill="#E0E0E0"/>
<path d="M46.465 254.91H35.4473V255.082H46.465V254.91Z" fill="#E0E0E0"/>
<path d="M153.59 253.051H116.866V253.222H153.59V253.051Z" fill="#E0E0E0"/>
<path d="M72.0202 261.283H47.1514V261.455H72.0202V261.283Z" fill="#E0E0E0"/>
<path d="M289.192 252.962H259.562V253.133H289.192V252.962Z" fill="#E0E0E0"/>
<path d="M299.647 252.962H295.305V253.133H299.647V252.962Z" fill="#E0E0E0"/>
<path d="M253.902 257.235H216.932V257.407H253.902V257.235Z" fill="#E0E0E0"/>
<path d="M127.37 15.5252H108.991C108.415 15.5252 108.168 14.798 108.621 14.4482L117.306 7.68384L127 0.130585C127.219 -0.0409241 127.521 -0.0409241 127.741 0.130585L137.441 7.68384L146.127 14.4482C146.579 14.798 146.332 15.5252 145.756 15.5252H127.377H127.37Z" fill="#EBEBEB"/>
<path d="M140.369 13.6316H114.376C114.135 13.6316 113.923 13.4807 113.847 13.2543C113.772 13.0279 113.847 12.7809 114.033 12.63L127.026 2.50408C127.232 2.3463 127.513 2.3463 127.712 2.50408L140.706 12.63C140.891 12.774 140.966 13.0279 140.891 13.2543C140.815 13.4807 140.603 13.6316 140.363 13.6316H140.369ZM115.261 12.7672H139.485L127.376 3.33419L115.267 12.7672H115.261Z" fill="#E0E0E0"/>
<path d="M116.126 15.5254H112.613V30.529H116.126V15.5254Z" fill="#EBEBEB"/>
<path d="M124.091 15.5254H120.578V30.529H124.091V15.5254Z" fill="#EBEBEB"/>
<path d="M134.895 15.5254H131.383V30.529H134.895V15.5254Z" fill="#EBEBEB"/>
<path d="M142.682 15.5254H139.17V30.529H142.682V15.5254Z" fill="#EBEBEB"/>
<path d="M146.105 34.3917H108.641C108.099 34.3917 107.708 33.884 107.845 33.3626L108.414 31.1467C108.51 30.7831 108.84 30.5293 109.21 30.5293H145.399C145.755 30.5293 146.078 30.7625 146.188 31.1056L146.894 33.3215C147.066 33.8566 146.668 34.3985 146.105 34.3985V34.3917Z" fill="#EBEBEB"/>
<path d="M127.369 11.6627C125.963 11.6627 124.817 10.517 124.817 9.11065C124.817 7.70427 125.963 6.55859 127.369 6.55859C128.776 6.55859 129.921 7.70427 129.921 9.11065C129.921 10.517 128.776 11.6627 127.369 11.6627ZM127.369 7.41614C126.436 7.41614 125.682 8.17764 125.682 9.10379C125.682 10.0299 126.436 10.7914 127.369 10.7914C128.302 10.7914 129.057 10.0299 129.057 9.10379C129.057 8.17764 128.302 7.41614 127.369 7.41614Z" fill="#E0E0E0"/>
<path d="M144.974 15.5254H109.773C109.538 15.5254 109.348 15.7158 109.348 15.9507V17.2816C109.348 17.5166 109.538 17.707 109.773 17.707H144.974C145.208 17.707 145.399 17.5166 145.399 17.2816V15.9507C145.399 15.7158 145.208 15.5254 144.974 15.5254Z" fill="#EBEBEB"/>
<path d="M144.603 16.0744H110.143C109.903 16.0744 109.711 15.8823 109.711 15.6422C109.711 15.4021 109.903 15.21 110.143 15.21H144.603C144.843 15.21 145.035 15.4021 145.035 15.6422C145.035 15.8823 144.843 16.0744 144.603 16.0744Z" fill="#E0E0E0"/>
<path d="M144.603 32.965H110.143C109.903 32.965 109.711 32.7729 109.711 32.5328C109.711 32.2927 109.903 32.1006 110.143 32.1006H144.603C144.843 32.1006 145.035 32.2927 145.035 32.5328C145.035 32.7729 144.843 32.965 144.603 32.965Z" fill="#E0E0E0"/>
<path d="M87.991 30.5693H37.8555V110.06H87.991V30.5693Z" fill="#E6E6E6"/>
<path d="M85.9819 30.501H37.8564V107.735H85.9819V30.501Z" fill="#F0F0F0"/>
<path d="M78.6475 37.3613H45.1758V100.875H78.6475V37.3613Z" fill="white"/>
<path d="M68.8161 50.7393H55.459V87.8538H68.8161V50.7393Z" fill="#F0F0F0"/>
<path d="M175.165 285.001C254.304 285.001 318.458 282.553 318.458 279.533C318.458 276.513 254.304 274.065 175.165 274.065C96.0272 274.065 31.873 276.513 31.873 279.533C31.873 282.553 96.0272 285.001 175.165 285.001Z" fill="#F5F5F5"/>
<path d="M202.676 222.68H134.257C126.56 222.68 120.331 216.438 119.898 208.836V45.3058C120.331 37.5193 126.567 31.2832 134.257 31.2764H202.676C210.373 31.2764 216.609 37.5193 216.609 45.2098V208.74C216.609 216.438 210.366 222.667 202.676 222.674V222.68Z" fill="#1F1233"/>
<path d="M202.675 34.4806H184.893C183.741 34.4806 182.76 35.3245 182.602 36.4701L182.527 37.0258C182.156 39.8386 179.755 41.9516 176.922 41.9584H160.025C157.184 41.9447 154.79 39.8386 154.42 37.0258L154.351 36.4701C154.2 35.3176 153.212 34.4532 152.046 34.4532H134.264C128.337 34.4326 123.514 39.2211 123.493 45.1485C123.493 45.1691 123.493 45.1897 123.493 45.2171V208.748C123.493 214.675 128.295 219.484 134.23 219.484H202.648C208.575 219.484 213.384 214.682 213.391 208.748V45.2171C213.391 39.3035 208.603 34.5081 202.689 34.4806H202.675Z" fill="#8032FF"/>
<path d="M202.675 34.4806H184.893C183.741 34.4806 182.76 35.3245 182.602 36.4701L182.527 37.0258C182.156 39.8386 179.755 41.9516 176.922 41.9584H160.025C157.184 41.9447 154.79 39.8386 154.42 37.0258L154.351 36.4701C154.2 35.3176 153.212 34.4532 152.046 34.4532H134.264C128.337 34.4326 123.514 39.2211 123.493 45.1485C123.493 45.1691 123.493 45.1897 123.493 45.2171V208.748C123.493 214.675 128.295 219.484 134.23 219.484H202.648C208.575 219.484 213.384 214.682 213.391 208.748V45.2171C213.391 39.3035 208.603 34.5081 202.689 34.4806H202.675Z" fill="#EADFFD"/>
<g opacity="0.7">
<path d="M164.333 36.2909C164.333 37.0456 163.729 37.6562 162.981 37.663C162.227 37.663 161.616 37.0593 161.609 36.3115C161.609 35.5569 162.213 34.9463 162.961 34.9395C162.961 34.9395 162.975 34.9395 162.981 34.9395C163.729 34.9395 164.333 35.5432 164.333 36.2909Z" fill="#1F1233"/>
<path d="M173.965 34.9336H169.307C168.559 34.9336 167.955 35.5373 167.955 36.2851C167.955 37.0329 168.559 37.6366 169.307 37.6366H173.965C174.713 37.6366 175.316 37.0329 175.316 36.2851C175.316 35.5373 174.713 34.9336 173.965 34.9336Z" fill="#1F1233"/>
</g>
<path d="M132.418 40.5244H130.978V41.9651H132.418V40.5244Z" fill="#8032FF"/>
<path d="M133.846 40.5247V41.9653H135.286V40.5247V39.084H133.846V40.5247Z" fill="#8032FF"/>
<path d="M136.727 37.6562V39.0832V40.5239V41.9646H138.167V40.5239V39.0832V37.6562H136.727Z" fill="#8032FF"/>
<path d="M198.593 37.7529V38.8026H197.894V40.9156H198.593V41.9652H204.96V37.7529H198.593ZM201.434 40.9156H199.272V38.8026H201.385L201.434 40.9156Z" fill="#8032FF"/>
<path d="M195.321 116.647H141.618C140.989 116.647 140.479 117.157 140.479 117.786V151.388C140.479 152.017 140.989 152.527 141.618 152.527H195.321C195.95 152.527 196.46 152.017 196.46 151.388V117.786C196.46 117.157 195.95 116.647 195.321 116.647Z" fill="#8032FF"/>
<path opacity="0.6" d="M157.816 123.782H149.515C148.734 123.782 148.102 124.415 148.102 125.195V131.974C148.102 132.754 148.734 133.387 149.515 133.387H157.816C158.596 133.387 159.229 132.754 159.229 131.974V125.195C159.229 124.415 158.596 123.782 157.816 123.782Z" fill="white"/>
<g opacity="0.3">
<path d="M148.102 140.7H155.339C156.163 140.7 156.163 139.424 155.339 139.424H148.102C147.279 139.424 147.279 140.7 148.102 140.7Z" fill="#1F1233"/>
</g>
<g opacity="0.3">
<path d="M159.236 140.7H166.473C167.297 140.7 167.297 139.424 166.473 139.424H159.236C158.412 139.424 158.412 140.7 159.236 140.7Z" fill="#1F1233"/>
</g>
<g opacity="0.3">
<path d="M170.377 140.7H177.615C178.438 140.7 178.438 139.424 177.615 139.424H170.377C169.554 139.424 169.554 140.7 170.377 140.7Z" fill="#1F1233"/>
</g>
<g opacity="0.3">
<path d="M181.518 140.7H188.756C189.579 140.7 189.579 139.424 188.756 139.424H181.518C180.695 139.424 180.695 140.7 181.518 140.7Z" fill="#1F1233"/>
</g>
<path d="M184.503 53.1816H151.402C150.447 53.1816 149.673 53.9557 149.673 54.9105V85.1303C149.673 86.0851 150.447 86.8592 151.402 86.8592H184.503C185.458 86.8592 186.232 86.0851 186.232 85.1303V54.9105C186.232 53.9557 185.458 53.1816 184.503 53.1816Z" fill="#8032FF"/>
<path d="M167.949 67.6441H155.203C154.805 67.6441 154.633 67.1432 154.949 66.8963L160.972 62.2038L167.695 56.9625C167.846 56.8458 168.059 56.8458 168.21 56.9625L174.933 62.2038L180.956 66.8963C181.272 67.1432 181.1 67.6441 180.703 67.6441H167.956H167.949Z" fill="#8032FF"/>
<g opacity="0.7">
<path d="M167.949 67.6441H155.203C154.805 67.6441 154.633 67.1432 154.949 66.8963L160.972 62.2038L167.695 56.9625C167.846 56.8458 168.059 56.8458 168.21 56.9625L174.933 62.2038L180.956 66.8963C181.272 67.1432 181.1 67.6441 180.703 67.6441H167.956H167.949Z" fill="white"/>
</g>
<path d="M176.964 66.3266H158.935C158.77 66.3266 158.619 66.2237 158.564 66.0659C158.509 65.9081 158.564 65.7366 158.694 65.6337L167.709 58.6087C167.853 58.4989 168.045 58.4989 168.182 58.6087L177.197 65.6337C177.327 65.7366 177.382 65.9081 177.327 66.0659C177.272 66.2237 177.128 66.3266 176.957 66.3266H176.964ZM159.545 65.7297H176.346L167.942 59.185L159.538 65.7297H159.545Z" fill="#8032FF"/>
<path d="M160.149 67.6445H157.714V78.0517H160.149V67.6445Z" fill="#8032FF"/>
<g opacity="0.7">
<path d="M160.149 67.6436H157.714V78.0507H160.149V67.6436Z" fill="white"/>
</g>
<path d="M165.672 67.6445H163.236V78.0517H165.672V67.6445Z" fill="#8032FF"/>
<g opacity="0.7">
<path d="M165.672 67.6436H163.236V78.0507H165.672V67.6436Z" fill="white"/>
</g>
<path d="M173.17 67.6445H170.734V78.0517H173.17V67.6445Z" fill="#8032FF"/>
<g opacity="0.7">
<path d="M173.17 67.6436H170.734V78.0507H173.17V67.6436Z" fill="white"/>
</g>
<path d="M178.597 67.6445H176.161V78.0517H178.597V67.6445Z" fill="#8032FF"/>
<g opacity="0.7">
<path d="M178.597 67.6436H176.161V78.0507H178.597V67.6436Z" fill="white"/>
</g>
<path d="M180.942 80.7273H154.955C154.585 80.7273 154.311 80.3774 154.4 80.0138L154.791 78.4771C154.853 78.2233 155.086 78.0449 155.346 78.0449H180.449C180.696 78.0449 180.915 78.2027 180.991 78.4428L181.478 79.9795C181.594 80.35 181.32 80.7273 180.936 80.7273H180.942Z" fill="#8032FF"/>
<g opacity="0.7">
<path d="M180.942 80.7263H154.955C154.585 80.7263 154.311 80.3765 154.4 80.0129L154.791 78.4761C154.853 78.2223 155.086 78.0439 155.346 78.0439H180.449C180.696 78.0439 180.915 78.2017 180.991 78.4418L181.478 79.9786C181.594 80.349 181.32 80.7263 180.936 80.7263H180.942Z" fill="white"/>
</g>
<path d="M167.949 64.9618C166.975 64.9618 166.179 64.166 166.179 63.1918C166.179 62.2177 166.975 61.4219 167.949 61.4219C168.923 61.4219 169.719 62.2177 169.719 63.1918C169.719 64.166 168.923 64.9618 167.949 64.9618ZM167.949 62.0187C167.304 62.0187 166.776 62.547 166.776 63.1918C166.776 63.8367 167.304 64.365 167.949 64.365C168.594 64.365 169.122 63.8367 169.122 63.1918C169.122 62.547 168.594 62.0187 167.949 62.0187Z" fill="#8032FF"/>
<path d="M180.024 67.6445H155.869C155.634 67.6445 155.443 67.835 155.443 68.0699V68.7285C155.443 68.9634 155.634 69.1538 155.869 69.1538H180.024C180.259 69.1538 180.449 68.9634 180.449 68.7285V68.0699C180.449 67.835 180.259 67.6445 180.024 67.6445Z" fill="#8032FF"/>
<g opacity="0.7">
<path d="M180.024 67.6436H155.869C155.634 67.6436 155.443 67.834 155.443 68.0689V68.7275C155.443 68.9624 155.634 69.1528 155.869 69.1528H180.024C180.259 69.1528 180.449 68.9624 180.449 68.7275V68.0689C180.449 67.834 180.259 67.6436 180.024 67.6436Z" fill="white"/>
</g>
<path d="M179.901 68.0217H155.999C155.834 68.0217 155.697 67.8845 155.697 67.7198C155.697 67.5552 155.834 67.418 155.999 67.418H179.901C180.065 67.418 180.202 67.5552 180.202 67.7198C180.202 67.8845 180.065 68.0217 179.901 68.0217Z" fill="#8032FF"/>
<path d="M179.901 79.7385H155.999C155.834 79.7385 155.697 79.6013 155.697 79.4366C155.697 79.272 155.834 79.1348 155.999 79.1348H179.901C180.065 79.1348 180.202 79.272 180.202 79.4366C180.202 79.6013 180.065 79.7385 179.901 79.7385Z" fill="#8032FF"/>
<path d="M189.874 92.7725H147.065V94.7551H189.874V92.7725Z" fill="#8032FF"/>
<path d="M158.831 103.146H137.365V105.128H158.831V103.146Z" fill="#8032FF"/>
<path d="M178.878 103.146H163.223V105.128H178.878V103.146Z" fill="#8032FF"/>
<path d="M198.985 103.146H183.33V105.128H198.985V103.146Z" fill="#8032FF"/>
<path opacity="0.3" d="M158.831 103.146H137.365V105.128H158.831V103.146Z" fill="#1F1233"/>
<path opacity="0.3" d="M178.878 103.146H163.223V105.128H178.878V103.146Z" fill="#1F1233"/>
<path opacity="0.3" d="M198.985 103.146H183.33V105.128H198.985V103.146Z" fill="#1F1233"/>
<path d="M145.24 170.823C146.942 170.823 148.321 169.444 148.321 167.742C148.321 166.041 146.942 164.662 145.24 164.662C143.539 164.662 142.16 166.041 142.16 167.742C142.16 169.444 143.539 170.823 145.24 170.823Z" fill="#8032FF"/>
<path d="M195.28 166.226H155.058V168.098H195.28V166.226Z" fill="#8032FF"/>
<path d="M144.726 183.096C146.427 183.096 147.806 181.717 147.806 180.016C147.806 178.315 146.427 176.936 144.726 176.936C143.025 176.936 141.646 178.315 141.646 180.016C141.646 181.717 143.025 183.096 144.726 183.096Z" fill="#8032FF"/>
<path d="M195.28 178.534H155.058V180.407H195.28V178.534Z" fill="#8032FF"/>
<path d="M145.24 194.862C146.942 194.862 148.321 193.483 148.321 191.781C148.321 190.08 146.942 188.701 145.24 188.701C143.539 188.701 142.16 190.08 142.16 191.781C142.16 193.483 143.539 194.862 145.24 194.862Z" fill="#8032FF"/>
<path d="M195.28 190.848H155.058V192.721H195.28V190.848Z" fill="#8032FF"/>
<path opacity="0.3" d="M195.28 166.226H155.058V168.098H195.28V166.226Z" fill="#1F1233"/>
<path opacity="0.3" d="M195.28 178.534H155.058V180.407H195.28V178.534Z" fill="#1F1233"/>
<path opacity="0.3" d="M195.28 190.848H155.058V192.721H195.28V190.848Z" fill="#1F1233"/>
<path opacity="0.2" d="M122.786 177.924C122.786 176.277 128.748 154.846 141.872 132.316C154.989 109.787 171.213 125.175 186.958 100.45C202.702 75.7251 204.472 34.4531 204.472 34.4531H186.142C186.142 34.4531 182.663 80.6714 165.965 86.7154C149.267 92.7593 122.786 129.572 122.786 129.572V177.924Z" fill="white"/>
<path opacity="0.2" d="M134.325 219.759H145.062C145.062 219.759 204.555 134.896 213.384 119.639V103.188C205.275 122.259 134.332 219.759 134.332 219.759H134.325Z" fill="white"/>
<path d="M209.872 98.8017C215.339 109.765 228.113 114.491 238.404 109.36L242.067 107.535L222.275 67.834L218.612 69.6588C208.321 74.7904 204.404 87.8388 209.872 98.8017Z" fill="#FFAD32"/>
<path opacity="0.3" d="M209.872 98.8017C215.339 109.765 228.113 114.491 238.404 109.36L242.067 107.535L222.275 67.834L218.612 69.6588C208.321 74.7904 204.404 87.8388 209.872 98.8017Z" fill="#1F1233"/>
<path d="M241.975 107.595C252.964 102.183 257.485 88.8873 252.073 77.8983C246.661 66.9093 233.365 62.3882 222.376 67.8003C211.387 73.2123 206.866 86.508 212.278 97.497C217.69 108.486 230.986 113.007 241.975 107.595Z" fill="#FFAD32"/>
<path d="M216.28 95.6119C220.657 104.386 231.318 107.961 240.099 103.584C248.874 99.2068 252.448 88.5458 248.071 79.7645C243.694 70.9901 233.033 67.4158 224.252 71.7928C215.477 76.1697 211.903 86.8307 216.28 95.6119Z" fill="#FFAD32"/>
<path opacity="0.3" d="M216.28 95.6119C220.657 104.386 231.318 107.961 240.099 103.584C248.874 99.2068 252.448 88.5458 248.071 79.7645C243.694 70.9901 233.033 67.4158 224.252 71.7928C215.477 76.1697 211.903 86.8307 216.28 95.6119Z" fill="white"/>
<path d="M237.767 92.7514C237.239 93.7873 236.422 94.5968 235.311 95.1936L235.489 95.7562C235.578 96.0375 235.551 96.3188 235.414 96.6069C235.27 96.8882 235.064 97.0734 234.776 97.1626C234.488 97.2518 234.22 97.2243 233.959 97.0734C233.699 96.9225 233.52 96.7029 233.431 96.4011L233.273 95.9071C232.176 96.1061 231.153 96.0649 230.227 95.7836C229.294 95.5024 228.553 95.0564 227.998 94.4459C227.737 94.1509 227.579 93.8902 227.504 93.6638C227.408 93.3619 227.435 93.0738 227.586 92.7925C227.737 92.5112 227.963 92.3192 228.279 92.2163C228.533 92.1339 228.78 92.1408 229.02 92.23C229.26 92.3192 229.466 92.4701 229.63 92.6759C229.946 93.115 230.385 93.4237 230.927 93.6089C231.476 93.7873 232.052 93.849 232.656 93.7941L231.243 88.9782C229.877 88.9644 228.745 88.7518 227.84 88.3539C226.934 87.9491 226.324 87.2356 226.001 86.2066C225.672 85.1638 225.754 84.1759 226.248 83.2429C226.742 82.3099 227.586 81.5621 228.793 81.0064L228.649 80.5399C228.56 80.2586 228.581 79.9774 228.718 79.6961C228.848 79.4148 229.054 79.2365 229.322 79.1473C229.603 79.0581 229.884 79.0924 230.159 79.2433C230.433 79.3942 230.618 79.6138 230.708 79.895L230.845 80.341C232.093 80.0803 233.143 80.1283 234 80.485C234.858 80.8418 235.421 81.4455 235.695 82.3168C235.798 82.6461 235.777 82.9479 235.64 83.2292C235.496 83.5105 235.276 83.6957 234.981 83.7917C234.714 83.8741 234.46 83.8603 234.22 83.7506C233.98 83.6408 233.802 83.4487 233.685 83.1949C233.541 82.893 233.273 82.6735 232.875 82.5294C232.477 82.3854 232.004 82.3373 231.448 82.3991L232.69 86.6799C235.668 86.7142 237.458 87.7021 238.069 89.6368C238.398 90.6933 238.302 91.7429 237.774 92.7788L237.767 92.7514ZM228.841 86.2477C229.233 86.4467 229.795 86.577 230.536 86.6388L229.425 83.0302C228.828 83.3321 228.423 83.682 228.197 84.0936C227.97 84.4984 227.929 84.9306 228.066 85.3765C228.19 85.7607 228.444 86.0557 228.835 86.2546L228.841 86.2477ZM235.846 91.8527C236.093 91.3518 236.134 90.8579 235.99 90.3845C235.866 90.0004 235.606 89.6848 235.201 89.4378C234.796 89.1977 234.193 89.0468 233.39 88.985L234.659 93.1081C235.208 92.7719 235.606 92.3535 235.846 91.8527Z" fill="#FFAD32"/>
<path d="M215.409 80.9509C219.134 71.6963 229.665 67.2165 238.919 70.9416C248.174 74.6668 252.654 85.1975 248.928 94.4521C251.295 85.6297 246.706 76.4231 238.233 73.0135C228.979 69.2883 218.455 73.7681 214.723 83.0227C214.908 82.323 215.141 81.6301 215.416 80.9578L215.409 80.9509Z" fill="#FFAD32"/>
<path opacity="0.3" d="M215.409 80.9509C219.134 71.6963 229.665 67.2165 238.919 70.9416C248.174 74.6668 252.654 85.1975 248.928 94.4521C251.295 85.6297 246.706 76.4231 238.233 73.0135C228.979 69.2883 218.455 73.7681 214.723 83.0227C214.908 82.323 215.141 81.6301 215.416 80.9578L215.409 80.9509Z" fill="#1F1233"/>
<path d="M62.5257 157.643C65.4688 163.55 72.3566 166.102 77.9066 163.337L79.8824 162.356L69.2145 140.959L67.2388 141.94C61.6887 144.705 59.5826 151.737 62.5257 157.65V157.643Z" fill="#FFAD32"/>
<path opacity="0.3" d="M62.5257 157.643C65.4688 163.55 72.3566 166.102 77.9066 163.337L79.8824 162.356L69.2145 140.959L67.2388 141.94C61.6887 144.705 59.5826 151.737 62.5257 157.65V157.643Z" fill="#1F1233"/>
<path d="M85.8853 155.441C83.7929 161.705 77.0148 165.08 70.7513 162.988C64.4878 160.895 61.1125 154.117 63.2049 147.854C65.2973 141.59 72.0754 138.215 78.3389 140.307C84.6024 142.4 87.9777 149.178 85.8853 155.441Z" fill="#FFAD32"/>
<path d="M65.9767 155.921C68.3367 160.654 74.0856 162.575 78.8124 160.215C83.5461 157.855 85.467 152.106 83.107 147.379C80.747 142.653 74.9981 140.725 70.2713 143.085C65.5376 145.445 63.6167 151.194 65.9767 155.921Z" fill="#FFAD32"/>
<path opacity="0.3" d="M65.9767 155.921C68.3367 160.654 74.0856 162.575 78.8124 160.215C83.5461 157.855 85.467 152.106 83.107 147.379C80.747 142.653 74.9981 140.725 70.2713 143.085C65.5376 145.445 63.6167 151.194 65.9767 155.921Z" fill="white"/>
<path d="M77.5572 154.379C77.2759 154.935 76.83 155.374 76.2331 155.696L76.3292 155.998C76.3772 156.149 76.3635 156.3 76.288 156.458C76.2125 156.615 76.0959 156.711 75.945 156.759C75.7941 156.808 75.6431 156.794 75.5059 156.711C75.3687 156.629 75.2727 156.513 75.2178 156.348L75.1355 156.08C74.5455 156.19 73.9966 156.163 73.489 156.012C72.9882 155.861 72.5834 155.621 72.2884 155.291C72.1512 155.134 72.062 154.99 72.0209 154.873C71.9728 154.715 71.9866 154.557 72.062 154.4C72.1444 154.249 72.2678 154.146 72.4325 154.091C72.5697 154.05 72.7 154.05 72.8304 154.098C72.9607 154.146 73.0705 154.228 73.1597 154.338C73.3312 154.578 73.5644 154.743 73.8594 154.839C74.1544 154.935 74.4631 154.969 74.7924 154.935L74.031 152.341C73.2969 152.335 72.6863 152.218 72.1924 152.005C71.7053 151.786 71.376 151.402 71.1976 150.846C71.0192 150.283 71.0673 149.748 71.3348 149.247C71.6024 148.747 72.0552 148.342 72.7069 148.04L72.6246 147.786C72.5766 147.635 72.5903 147.484 72.6589 147.333C72.7275 147.182 72.8372 147.086 72.9813 147.038C73.1322 146.99 73.2832 147.004 73.4341 147.086C73.585 147.169 73.6811 147.285 73.7291 147.436L73.8046 147.676C74.4769 147.539 75.0394 147.56 75.5059 147.752C75.9656 147.944 76.2743 148.273 76.4184 148.74C76.4732 148.918 76.4664 149.083 76.3841 149.234C76.3086 149.385 76.192 149.488 76.0273 149.536C75.8832 149.584 75.746 149.57 75.6157 149.515C75.4853 149.453 75.3893 149.35 75.3276 149.213C75.2521 149.048 75.108 148.932 74.8885 148.856C74.6758 148.781 74.4151 148.753 74.1201 148.788L74.7924 151.093C76.3978 151.113 77.3651 151.642 77.6875 152.684C77.8659 153.254 77.811 153.816 77.5297 154.379H77.5572ZM72.7481 150.873C72.9607 150.983 73.2626 151.052 73.6605 151.086L73.0636 149.138C72.7412 149.302 72.5217 149.488 72.405 149.707C72.2816 149.927 72.261 150.153 72.3364 150.4C72.405 150.606 72.5423 150.764 72.7481 150.873ZM76.5213 153.892C76.6516 153.624 76.6791 153.357 76.5967 153.103C76.5281 152.897 76.3909 152.726 76.1714 152.595C75.9518 152.465 75.6294 152.383 75.1972 152.355L75.8832 154.578C76.1782 154.4 76.3909 154.173 76.5213 153.899V153.892Z" fill="#FFAD32"/>
<path d="M65.5101 148.019C67.5202 143.032 73.1937 140.617 78.1812 142.627C83.1687 144.637 85.5835 150.311 83.5734 155.298C84.8495 150.544 82.3729 145.584 77.8107 143.739C72.8233 141.728 67.1497 144.143 65.1396 149.131C65.2426 148.754 65.366 148.383 65.5101 148.019Z" fill="#FFAD32"/>
<path opacity="0.3" d="M65.5101 148.019C67.5202 143.032 73.1937 140.617 78.1812 142.627C83.1687 144.637 85.5835 150.311 83.5734 155.298C84.8495 150.544 82.3729 145.584 77.8107 143.739C72.8233 141.728 67.1497 144.143 65.1396 149.131C65.2426 148.754 65.366 148.383 65.5101 148.019Z" fill="#1F1233"/>
<path d="M203.472 232.244C203.472 232.244 209.955 210.764 234.398 209.838C258.842 208.912 278.291 215.395 279.032 237.06C279.773 258.725 267.177 262.985 267.177 262.985L266.807 274.284H254.396V267.616C254.396 267.616 238.096 268.357 231.99 266.505V276.136H218.654L218.469 263.17C218.469 263.17 208.652 258.354 205.503 250.019H198.649C196.296 243.118 195.5 236.353 197.579 232.107L203.465 232.244H203.472Z" fill="#8032FF"/>
<path d="M217.564 219.607C217.097 215.718 216.638 211.835 216.171 207.945C216.123 207.554 216.082 207.128 216.274 206.778C216.603 206.175 217.426 206.092 218.106 206.182C221.001 206.538 223.505 208.507 225.179 210.895C226.853 213.282 227.834 216.081 228.787 218.839" fill="#8032FF"/>
<path d="M215.999 215.587C214.325 213.199 211.821 211.23 208.926 210.874C208.247 210.791 207.417 210.874 207.094 211.47C206.902 211.82 206.95 212.239 206.991 212.637C207.458 216.526 207.918 220.409 208.384 224.299L219.608 223.531C218.654 220.773 217.673 217.974 215.999 215.587Z" fill="#8032FF"/>
<path d="M237.912 215.251C242.858 214.75 247.832 215.148 252.627 216.458C253.485 216.691 253.848 215.367 252.991 215.134C248.086 213.796 242.968 213.364 237.912 213.879C237.041 213.968 237.034 215.347 237.912 215.251Z" fill="#1F1233"/>
<path d="M214.785 229.953C214.867 230.55 214.902 231.154 214.888 231.757C214.888 232.052 214.86 232.347 214.833 232.642C214.826 232.711 214.819 232.786 214.812 232.855C214.792 233.013 214.819 232.807 214.799 232.951C214.771 233.116 214.751 233.28 214.716 233.438C214.648 233.788 214.812 234.2 215.197 234.282C215.533 234.357 215.972 234.179 216.04 233.802C216.274 232.532 216.329 231.236 216.157 229.953C216.13 229.761 216.095 229.61 215.958 229.466C215.841 229.349 215.642 229.26 215.471 229.267C215.142 229.281 214.73 229.576 214.785 229.953Z" fill="#1F1233"/>
<path d="M279.354 236.786C280.568 234.769 283.484 234.893 285.082 236.34C286.811 237.897 287.922 241.273 286.887 243.475C286.324 244.669 284.767 245.334 283.854 244.12C282.976 242.954 283.449 241.328 283.902 240.086C284.719 237.829 286.269 235.634 288.526 234.652C290.783 233.678 293.809 234.227 295.126 236.436C295.579 237.198 296.765 236.505 296.313 235.743C294.755 233.129 291.305 232.224 288.506 233.198C285.288 234.316 283.168 237.465 282.283 240.628C281.837 242.24 281.817 244.14 283.12 245.375C284.273 246.473 285.954 246.356 287.134 245.368C289.747 243.173 288.56 238.398 286.715 236.1C284.602 233.466 280.074 232.924 278.16 236.1C277.7 236.862 278.894 237.554 279.347 236.793L279.354 236.786Z" fill="#8032FF"/>
<path d="M197.559 233.082C200.028 237.905 200.68 243.509 199.39 248.771C199.178 249.629 200.508 249.999 200.714 249.135C202.093 243.503 201.387 237.541 198.745 232.382C198.341 231.593 197.154 232.286 197.559 233.075V233.082Z" fill="#1F1233"/>
<path d="M252.654 209.118C259.631 209.66 266.382 212.287 271.877 216.63C272.391 217.034 273.125 216.314 272.604 215.902C266.882 211.375 259.933 208.651 252.654 208.089C251.996 208.041 251.996 209.07 252.654 209.118Z" fill="#8032FF"/>
<path d="M273.853 219.065C274.456 219.71 275.06 220.355 275.657 221C275.842 221.198 276.199 221.198 276.384 221C276.576 220.787 276.583 220.485 276.384 220.272C275.78 219.627 275.177 218.983 274.58 218.338C274.395 218.139 274.038 218.139 273.853 218.338C273.661 218.55 273.654 218.852 273.853 219.065Z" fill="#8032FF"/>
<path d="M79.3742 44.9279C72.2257 41.4771 63.6365 44.4682 60.1789 51.6167C56.7213 58.7652 59.7193 67.3544 66.8678 70.812C72.3835 73.4807 78.7568 72.287 82.9622 68.3217L87.2636 68.699L85.9464 64.3358C85.9807 64.2672 86.0287 64.1986 86.063 64.13C89.5138 56.9815 86.5227 48.3923 79.3742 44.9347V44.9279Z" fill="#8032FF"/>
<path d="M72.2471 41.6354C76.871 40.9768 81.7761 42.8291 84.8221 46.3759" stroke="#8032FF" stroke-width="0.686036" stroke-linecap="round" stroke-linejoin="round"/>
<path d="M86.1592 48.0498C86.66 48.5575 87.0579 49.1612 87.3186 49.8266" stroke="#8032FF" stroke-width="0.686036" stroke-linecap="round" stroke-linejoin="round"/>
<path d="M73.1452 65.0294L65.8389 59.5891L67.7323 57.0439L72.6306 60.6868L79.3675 52.6602L81.8029 54.6977L73.1452 65.0294Z" fill="white"/>
<path d="M103.749 247.955L95.9629 249.197L102.336 267.253L110.13 266.005L103.749 247.955Z" fill="#F2B269"/>
<path d="M99.4762 264.4L102.227 263.309C102.852 263.062 103.551 263.152 104.121 263.508C106.57 265.045 107.441 263.755 108.354 261.025C109.403 260.462 110.199 261.601 110.419 261.91L115.454 268.585C115.879 269.141 115.776 269.936 115.221 270.362C115.125 270.437 115.015 270.499 114.898 270.54C111.55 271.871 109.973 272.495 105.808 274.149L93.0755 279.205C89.6042 280.584 87.498 277.373 88.8015 276.481C94.6671 272.509 98.4678 268.811 99.7095 266.15C99.9496 265.676 99.4694 265.58 99.4694 264.407L99.4762 264.4Z" fill="#1F1233"/>
<path d="M96.3814 268.578C97.2459 268.215 98.0622 267.755 98.8306 267.22C98.8992 267.158 98.9061 267.055 98.8443 266.987C98.81 266.952 98.762 266.932 98.714 266.932C98.2543 266.897 94.1724 266.657 93.5481 267.611C93.4315 267.782 93.4178 268.002 93.5138 268.187C93.6579 268.544 93.9666 268.805 94.3371 268.901C95.0299 269.017 95.7503 268.901 96.3746 268.578H96.3814ZM98.2063 267.227C97.2664 267.817 95.4759 268.818 94.4605 268.544C94.193 268.462 93.9735 268.276 93.8568 268.022C93.8088 267.947 93.8088 267.851 93.8637 267.782C94.2067 267.261 96.5255 267.165 98.1994 267.227H98.2063Z" fill="#8032FF"/>
<path d="M98.7962 267.247C98.8374 267.247 98.8717 267.227 98.906 267.206C98.9334 267.145 98.9266 267.076 98.8854 267.028C98.8305 266.884 96.6764 263.817 94.8721 264.778C94.4262 265.025 94.385 265.306 94.4399 265.498C94.68 266.445 97.5202 267.282 98.7276 267.302L98.7962 267.241V267.247ZM95.1671 264.97C96.3608 264.496 97.8426 266.198 98.3915 266.898C97.0331 266.753 94.8996 265.965 94.7761 265.375C94.7555 265.327 94.7075 265.203 95.0436 265.032L95.1671 264.97Z" fill="#8032FF"/>
<path d="M101.342 268.097C101.294 268.097 101.246 268.083 101.205 268.049C100.43 267.48 99.4006 267.274 98.4608 267.507C98.3373 267.534 98.2069 267.459 98.1726 267.335C98.1452 267.212 98.2206 267.082 98.3441 267.047C99.4143 266.78 100.587 267.013 101.479 267.665C101.582 267.74 101.61 267.891 101.534 267.994C101.486 268.056 101.418 268.09 101.342 268.09V268.097Z" fill="#8032FF"/>
<path d="M100.141 270.066C100.093 270.066 100.045 270.052 100.004 270.018C99.2285 269.448 98.1994 269.242 97.2596 269.476C97.1292 269.503 97.0057 269.428 96.9714 269.304C96.944 269.181 97.0195 269.05 97.143 269.016C98.2132 268.749 99.3863 268.982 100.278 269.633C100.381 269.709 100.408 269.86 100.333 269.963C100.285 270.025 100.216 270.059 100.141 270.059V270.066Z" fill="#8032FF"/>
<path d="M98.4398 271.994C98.3917 271.994 98.3437 271.981 98.3026 271.946C97.5205 271.377 96.4983 271.171 95.5584 271.404C95.4349 271.432 95.3046 271.356 95.2703 271.233C95.2428 271.109 95.3183 270.979 95.4418 270.945C96.512 270.677 97.6851 270.91 98.577 271.562C98.6799 271.638 98.7073 271.789 98.6319 271.891C98.5838 271.953 98.5152 271.988 98.4398 271.988V271.994Z" fill="#8032FF"/>
<path opacity="0.3" d="M115.453 268.577L110.418 261.902C110.191 261.6 109.403 260.462 108.36 261.017L103.743 247.955L95.9562 249.197L101.095 263.748L99.4687 264.393C99.4687 265.566 99.9489 265.662 99.7088 266.135C99.5853 266.396 99.4344 266.67 99.2629 266.951C99.1257 266.951 98.9954 266.972 98.8582 266.986C98.6386 266.629 96.5942 263.851 94.8654 264.777C94.4195 265.024 94.3783 265.305 94.4332 265.497C94.5704 266.039 95.5652 266.547 96.6148 266.883C95.3319 266.91 93.8913 267.068 93.5414 267.61C93.4247 267.782 93.411 268.001 93.5071 268.186C93.6511 268.543 93.9599 268.804 94.3303 268.9C95.0232 269.016 95.7435 268.9 96.3678 268.577C97.0676 268.282 97.733 267.912 98.3711 267.5C98.3985 267.5 98.4191 267.521 98.4465 267.514C98.6043 267.473 98.769 267.466 98.9336 267.452C98.6112 267.926 98.227 268.42 97.7811 268.941C97.5615 268.955 97.3489 268.975 97.1362 269.023C97.0058 269.058 96.9304 269.181 96.9647 269.311C96.999 269.435 97.1225 269.517 97.2528 269.483C97.2665 269.483 97.2871 269.483 97.3008 269.483C96.8755 269.943 96.409 270.416 95.9013 270.896C95.7504 270.917 95.5926 270.917 95.4417 270.958C95.3113 270.992 95.2359 271.116 95.2702 271.246C95.2839 271.308 95.3251 271.356 95.3731 271.39C93.6237 272.989 91.4147 274.704 88.794 276.48C87.4905 277.372 89.6035 280.583 93.068 279.204L105.801 274.148C109.965 272.495 111.543 271.87 114.891 270.539C115.007 270.498 115.117 270.436 115.213 270.361C115.769 269.936 115.872 269.14 115.447 268.584L115.453 268.577ZM94.7694 265.38C94.7488 265.332 94.7008 265.209 95.0369 265.037L95.1604 264.976C96.3541 264.502 97.836 266.204 98.3848 266.903C97.0264 266.759 94.8929 265.97 94.7694 265.38ZM94.4607 268.557C94.1931 268.474 93.9736 268.289 93.8569 268.035C93.8089 267.96 93.8089 267.864 93.8638 267.795C94.1931 267.294 96.3267 267.185 97.98 267.233C98.0418 267.246 98.1035 267.253 98.1652 267.26C97.2185 267.857 95.4623 268.824 94.4607 268.557Z" fill="#2E2241"/>
<path d="M114.26 253.333L106.453 252.235L107.242 271.362L115.056 272.46L114.26 253.333Z" fill="#FCB47E"/>
<path d="M105.341 267.794L108.298 267.561C108.963 267.506 109.608 267.794 110.047 268.302C111.934 270.49 113.148 269.509 114.822 267.177C115.989 266.943 116.414 268.274 116.537 268.624L119.384 276.479C119.631 277.138 119.295 277.865 118.643 278.112C118.527 278.153 118.403 278.181 118.28 278.188C114.692 278.476 112.997 278.613 108.531 278.97L94.8792 280.06C91.154 280.355 90.0838 276.671 91.5931 276.198C98.3642 274.126 103.084 271.704 105.06 269.53C105.43 269.146 104.998 268.919 105.341 267.794Z" fill="#1F1233"/>
<path d="M101.156 270.882C102.089 270.786 103.002 270.594 103.893 270.306C103.976 270.272 104.01 270.169 103.976 270.086C103.955 270.038 103.914 270.011 103.866 269.997C103.434 269.826 99.6057 268.399 98.7276 269.126C98.5629 269.256 98.4875 269.462 98.5286 269.668C98.5629 270.052 98.7756 270.395 99.1049 270.594C99.7361 270.91 100.45 271.013 101.149 270.889L101.156 270.882ZM103.297 270.128C102.226 270.416 100.216 270.848 99.3313 270.292C99.098 270.141 98.9471 269.894 98.906 269.62C98.8785 269.538 98.9128 269.442 98.9814 269.394C99.4616 268.996 101.705 269.586 103.29 270.134L103.297 270.128Z" fill="#8032FF"/>
<path d="M103.859 270.319C103.901 270.326 103.935 270.319 103.976 270.312C104.024 270.264 104.038 270.195 104.01 270.134C103.997 269.983 102.837 266.415 100.834 266.806C100.34 266.916 100.21 267.163 100.21 267.369C100.162 268.343 102.631 269.983 103.777 270.353L103.859 270.319ZM101.06 267.081C102.343 266.978 103.256 269.043 103.571 269.866C102.316 269.324 100.505 267.945 100.566 267.348C100.566 267.3 100.553 267.163 100.923 267.094L101.06 267.074V267.081Z" fill="#8032FF"/>
<path d="M103.475 270.237C104.504 270.292 105.498 270.827 106.109 271.651" stroke="#8032FF" stroke-width="0.343018" stroke-linecap="round" stroke-linejoin="round"/>
<path d="M101.746 271.767C102.775 271.821 103.77 272.357 104.38 273.18" stroke="#8032FF" stroke-width="0.343018" stroke-linecap="round" stroke-linejoin="round"/>
<path d="M99.5586 273.111C100.588 273.166 101.582 273.701 102.193 274.525" stroke="#8032FF" stroke-width="0.343018" stroke-linecap="round" stroke-linejoin="round"/>
<path opacity="0.2" d="M101.313 134.545C101.313 134.545 105.615 136.72 113.347 136C125.922 134.834 135.485 130.271 135.485 130.271" stroke="#1F1233" stroke-width="0.343018" stroke-linecap="round" stroke-linejoin="round"/>
<path d="M102.123 136C102.123 136 78.8118 182.28 77.6524 199.472C76.3695 218.324 98.8921 262.244 98.8921 262.244L110.953 256.619C110.953 256.619 95.2767 215.018 96.3949 200.57C99.9554 179.906 125.044 139.43 125.044 139.43L102.13 136.007L102.123 136Z" fill="#7A6899"/>
<path opacity="0.2" d="M114.239 146.97C108.606 149.529 106.74 165.15 106.987 172.237C110.946 163.792 115.22 155.532 118.636 149.214C117.875 148.754 115.014 146.531 114.239 146.97Z" fill="#1F1233"/>
<path d="M101.959 132.872L135.766 133.97C135.766 133.97 135.986 144.343 133.427 152.067L99.8867 141.132L101.959 132.872Z" fill="#7A6899"/>
<path d="M113.443 135.307C113.443 135.307 105.959 187.116 105.712 204.507C105.437 223.565 105.588 262.237 105.588 262.237H117.361C117.361 262.237 122.238 226.495 124.152 208.026C126.327 186.986 134.834 145.343 134.834 145.343L113.443 135.307Z" fill="#7A6899"/>
<path opacity="0.2" d="M105.546 241.197L105.58 259.117L103.57 260.056L104.387 237.623L105.546 241.197Z" fill="#7A6899"/>
<path opacity="0.2" d="M123.665 141.695C124.104 142.91 125.071 143.918 126.265 144.412C127.459 144.906 128.851 144.879 130.025 144.337" stroke="#1F1233" stroke-width="0.343018" stroke-linecap="round" stroke-linejoin="round"/>
<path d="M102.192 110.129C102.021 110.52 101.829 110.904 101.63 111.289C99.3931 115.57 97.2527 118.43 95.2975 120.077C92.6151 122.313 90.2483 122.252 88.396 120.344C85.1922 117.038 88.1696 108.73 88.3136 108.73C88.4577 108.73 91.9908 109.615 91.9908 109.615L92.2789 108.73C92.6974 107.413 93.555 104.84 94.6526 102.02C96.7656 96.6624 99.8253 90.392 102.679 90.097C102.679 90.0284 106.61 100.36 102.185 110.136L102.192 110.129Z" fill="#FF817B"/>
<path opacity="0.2" d="M98.9948 108.887L98.151 116.948L96.6074 118.814L97.314 108.421L98.9948 108.887Z" fill="#1F1233"/>
<path opacity="0.2" d="M93.7671 116.434C93.8014 114.424 93.6368 112.421 93.2869 110.445L91.9766 109.656C92.395 108.476 93.0331 106.089 94.1307 103.564C97.9245 108.737 93.9455 116.16 93.774 116.434H93.7671Z" fill="#1F1233"/>
<path d="M134.285 115.425C134.607 123.568 135.876 132.501 135.773 134.538C125.01 140.973 105.135 142.036 100.518 138.448C100.381 137.563 101.568 134.881 100.779 134.538C93.2461 131.225 102.144 90.179 102.686 90.0212C105.581 89.3557 108.524 88.8892 111.488 88.6285C115.824 88.409 120.166 88.409 124.509 88.6285C127.96 88.8137 131.39 89.1911 134.799 89.7673C133.475 95.729 132.734 101.807 132.583 107.913C132.419 111.631 134.168 112.187 134.298 115.425H134.285Z" fill="#FF817B"/>
<path d="M92.0586 100.408C90.8374 100.628 89.63 100.943 88.4569 101.348C88.155 101.554 87.4964 105.348 87.5925 106.095C87.6474 106.486 89.3144 109.862 89.3144 109.862C89.9936 110.232 92.0654 110.164 92.0654 110.164V100.408H92.0586Z" fill="#FCB47E"/>
<path d="M118.685 96.3124C118.685 96.3124 127.754 91.9012 129.545 88.4847C131.335 85.0683 127.363 81.6175 120.716 81.5901C114.068 81.5626 107.317 84.2382 108.134 89.356C108.95 94.467 111.989 96.2712 111.989 96.2712C111.989 96.2712 113.951 93.8838 118.692 96.3124H118.685Z" fill="#FF817B"/>
<path d="M121.984 88.9514C119.336 90.9752 116.489 94.5494 114.794 94.4945C113.354 94.4465 112.599 91.7847 111.947 90.5018C113.765 87.7302 112.935 87.7645 111.405 85.3016L118.039 75.7314C118.43 80.1975 118.087 86.9138 121.984 88.9445V88.9514Z" fill="#FCB47E"/>
<path opacity="0.2" d="M115.343 79.6349L111.385 85.3015C111.831 86.0013 112.462 86.6256 112.771 87.394C114.637 86.5501 116.359 84.4028 116.537 82.1801C116.681 80.7737 115.885 79.6212 115.343 79.6349Z" fill="#1F1233"/>
<path d="M99.2694 104.675C99.3723 104.997 99.2076 105.354 98.9126 105.464C98.8852 105.471 98.8578 105.485 98.8303 105.485L92.5462 106.822C92.1963 106.87 91.8671 106.644 91.7573 106.28L87.888 93.1222C87.792 92.7586 87.9841 92.3744 88.3134 92.2578L94.5975 90.92C94.9817 90.8857 95.3384 91.1464 95.455 91.5512L99.2762 104.675H99.2694Z" fill="#FF817B"/>
<path opacity="0.2" d="M99.2694 104.675C99.3723 104.997 99.2076 105.354 98.9126 105.464C98.8852 105.471 98.8578 105.485 98.8303 105.485L92.5462 106.822C92.1963 106.87 91.8671 106.644 91.7573 106.28L87.888 93.1222C87.792 92.7586 87.9841 92.3744 88.3134 92.2578L94.5975 90.92C94.9817 90.8857 95.3384 91.1464 95.455 91.5512L99.2762 104.675H99.2694Z" fill="white"/>
<path opacity="0.5" d="M94.5084 91.7024C94.4055 91.3525 94.1173 91.1193 93.7949 91.085L88.3135 92.2512C87.9773 92.361 87.7852 92.7452 87.8881 93.1156L91.7574 106.274C91.8534 106.576 92.1004 106.775 92.3885 106.809L97.8905 105.643C97.8905 105.643 97.9454 105.629 97.9729 105.622C98.2679 105.512 98.4325 105.162 98.3296 104.833L94.5084 91.7092V91.7024Z" fill="#1F1233"/>
<path d="M102.967 104.47L97.5264 100.902L97.6293 109.011C97.6293 109.011 103.008 111.303 103.955 108.428L102.967 104.47Z" fill="#FCB47E"/>
<path d="M91.8525 105.67L91.8799 106.123C91.976 107.797 93.3755 109.094 95.0494 109.059H97.8004L97.526 100.902L94.8024 101.609C92.9776 102.082 91.7427 103.784 91.8525 105.663V105.67Z" fill="#FCB47E"/>
<path d="M102.679 104.277C104.359 105.073 111.398 110.438 111.398 110.438L107.858 114.671L101.855 108.675L102.672 104.271L102.679 104.277Z" fill="#FCB47E"/>
<path opacity="0.2" d="M105.547 113.497C105.547 113.497 117.12 129.777 125.03 126.367C132.94 122.958 134.285 115.432 134.285 115.432L124.145 121.771L105.547 112.077V113.504V113.497Z" fill="#1F1233"/>
<path d="M107.172 105.196C107.172 105.196 121.414 113.593 122.951 114.135C124.488 114.677 127.424 101.965 128.494 98.5691C129.565 95.1733 132.295 90.1172 134.717 89.7742C134.717 89.7742 142.51 89.4517 139.114 102.363C135.718 115.274 130.257 124.419 124.124 124.632C117.991 124.844 104.854 112.372 104.854 112.372L107.172 105.196Z" fill="#FF817B"/>
<path d="M89.082 101.17C90.2346 100.656 91.394 100.134 92.622 99.8391C92.8003 99.798 92.9924 99.7568 93.1708 99.7911C93.356 99.8254 93.5275 99.9557 93.5687 100.134C93.6167 100.367 93.4384 100.58 93.2668 100.745C92.3956 101.582 91.394 102.288 90.3169 102.844" fill="#FCB47E"/>
<path opacity="0.2" d="M104.854 112.372L107.172 105.196C107.172 105.196 121.414 113.593 122.951 114.135C124.488 114.677 128.261 102.912 129.331 99.5156" stroke="#1F1233" stroke-width="0.343018" stroke-linecap="round" stroke-linejoin="round"/>
<path opacity="0.2" d="M129.215 89.0059C129.215 89.0059 118.361 97.5813 115.59 97.8077C115.59 97.8077 126.278 95.4958 129.215 89.0059Z" fill="#1F1233"/>
<path d="M113.381 97.3C113.038 96.2915 112.263 94.597 111.296 94.1442C111.049 94.0276 110.781 93.9384 110.507 93.959C110.233 93.9796 109.958 94.1374 109.862 94.3912C109.704 94.7891 110.013 95.2076 110.301 95.5232C110.692 95.9554 111.07 96.3396 111.605 96.5522C112.14 96.7649 112.846 97.2383 113.388 97.3" stroke="white" stroke-width="0.171509" stroke-linecap="round" stroke-linejoin="round"/>
<path d="M113.512 97.2999C114.582 97.3205 116.434 97.1764 117.189 96.4149C117.381 96.2229 117.559 95.9965 117.628 95.7358C117.703 95.4751 117.649 95.1595 117.443 94.9811C117.12 94.6999 116.626 94.8439 116.228 95.0017C115.693 95.2212 115.199 95.4408 114.815 95.8798C114.438 96.312 113.745 96.8129 113.498 97.2999" stroke="white" stroke-width="0.171509" stroke-linecap="round" stroke-linejoin="round"/>
<path d="M113.415 97.4648C112.702 100.49 112.373 103.612 112.448 106.719" stroke="white" stroke-width="0.171509" stroke-linecap="round" stroke-linejoin="round"/>
<path d="M113.614 97.3008C113.299 100.436 114.342 104.086 115.645 106.953" stroke="white" stroke-width="0.171509" stroke-linecap="round" stroke-linejoin="round"/>
<path opacity="0.2" d="M101.06 122.313C101.17 122.348 111.11 122.636 111.11 122.636C111.11 122.636 116.77 127.726 119.343 128.227L119.912 132.872C119.912 132.872 111.398 136.631 102.775 133.722C96.4291 131.582 101.053 122.313 101.053 122.313H101.06Z" fill="#1F1233"/>
<path d="M92.2101 94.0277C92.313 94.4394 92.1346 94.8373 91.819 94.9196C91.4966 95.0019 91.1536 94.7344 91.0507 94.3227C90.9478 93.9111 91.1261 93.5132 91.4417 93.4309C91.7641 93.3486 92.1072 93.6161 92.2101 94.0277Z" fill="white"/>
<path opacity="0.2" d="M123.658 114.903C123.658 114.903 124.969 119.836 125.737 119.095C126.505 118.354 125.394 116.653 125.394 116.653C125.394 116.653 128.927 118.231 127.905 117.037C126.883 115.843 123.658 114.903 123.658 114.903Z" fill="#1F1233"/>
<path d="M104.064 67.3C106.891 68.4183 106.404 71.4849 101.821 77.1447C98.9192 74.7229 97.2864 69.118 98.7477 67.3C100.216 65.482 101.595 66.3396 104.064 67.3Z" fill="#1F1233"/>
<path d="M115.191 65.8532C112.392 62.1692 107.131 61.4557 103.447 64.2547C98.3699 68.124 100.01 77.0081 102.74 81.8996C105.786 87.3467 113.765 88.0533 116.941 82.3524C119.061 78.5517 118.004 75.149 116.721 69.2148C116.468 67.9936 115.946 66.8411 115.185 65.8532H115.191Z" fill="#FCB47E"/>
<path d="M108.736 74.0789C108.887 74.6964 108.599 75.2658 108.18 75.3344C107.762 75.403 107.357 74.9433 107.247 74.319C107.138 73.6948 107.391 73.1253 107.803 73.0636C108.208 72.995 108.626 73.4409 108.736 74.0789Z" fill="#1F1233"/>
<path d="M103.249 75.2318C103.4 75.8492 103.105 76.4255 102.693 76.4872C102.288 76.5558 101.87 76.0962 101.76 75.4719C101.65 74.8476 101.904 74.2782 102.316 74.2164C102.72 74.1478 103.146 74.6349 103.249 75.2318Z" fill="#1F1233"/>
<path d="M100.47 72.1921C100.572 72.2264 100.682 72.2058 100.765 72.1372C101.306 71.6364 102.047 71.4169 102.775 71.5541C102.926 71.5952 103.083 71.5061 103.131 71.3551C103.172 71.2042 103.083 71.0464 102.932 70.9984C102.02 70.8063 101.073 71.067 100.387 71.705C100.264 71.8079 100.25 71.9863 100.353 72.1098C100.387 72.1441 100.428 72.1715 100.47 72.1921Z" fill="#1F1233"/>
<path d="M109.121 70.8957C109.176 70.882 109.231 70.8545 109.272 70.8134C109.354 70.6762 109.313 70.4978 109.176 70.4155C108.387 69.9147 107.399 69.8323 106.542 70.1959C106.398 70.2645 106.336 70.436 106.411 70.5801C106.487 70.7242 106.651 70.7791 106.795 70.7105C107.481 70.4498 108.257 70.5252 108.881 70.9163C108.963 70.9437 109.053 70.9368 109.128 70.8957H109.121Z" fill="#1F1233"/>
<path d="M113.114 64.6041C110.555 66.2369 115.913 73.358 118.149 80.0262C123.363 74.4282 120.125 65.1049 118.314 63.5957C116.51 62.0864 115.371 63.1909 113.114 64.6041Z" fill="#1F1233"/>
<path d="M121.414 72.988C121.298 74.6551 120.529 76.2055 119.267 77.2963C117.593 78.737 115.823 77.461 115.501 75.3891C115.233 73.5437 115.748 70.5251 117.82 69.9008C119.891 69.2766 121.531 70.9368 121.414 72.9811V72.988Z" fill="#FFAB6B"/>
<path opacity="0.1" d="M116.99 75.272C116.736 74.1744 116.997 72.967 117.683 72.0683C117.971 71.6841 118.437 71.3342 118.897 71.4851" stroke="#1F1233" stroke-width="0.343018" stroke-miterlimit="10"/>
<path d="M107.653 79.7107C108.819 79.1276 109.848 78.3044 110.671 77.2959C110.815 77.4674 110.932 77.6595 111.021 77.8653C111.186 78.2289 111.261 78.6268 111.241 79.0247C111.193 79.8411 110.692 80.8153 108.97 81.6865C108.846 81.7551 108.716 81.8237 108.586 81.8786C108.112 81.2269 107.598 80.6095 107.035 80.0263C107.035 80.0263 107.275 79.9166 107.653 79.7107Z" fill="#FF817B"/>
<path d="M110.637 77.3028C110.781 77.4743 110.897 77.6664 110.987 77.8722C110.733 78.62 109.711 79.4158 108.092 80.2527L107.618 79.7107C108.784 79.1276 109.813 78.3044 110.637 77.2959V77.3028Z" fill="white"/>
<path d="M109.519 80.3769C110.006 79.828 110.589 79.3752 111.241 79.0322C111.192 79.8486 110.692 80.8228 108.97 81.6941C109.011 81.207 109.203 80.7542 109.519 80.3837V80.3769Z" fill="#FF3636"/>
<path d="M104.648 73.9404C104.291 75.6692 103.694 77.35 102.871 78.9142C103.701 79.319 104.662 79.3327 105.505 78.9622L104.648 73.9404Z" fill="#FFA45F"/>
<path d="M116.729 64.9953C116.729 64.9953 117.408 62.7108 113.113 60.3097C108.819 57.9085 101.595 59.4384 96.7925 62.3883C91.9902 65.3383 97.4305 69.5711 99.6807 69.7701L99.0838 68.9811C101.492 69.2007 103.927 68.9331 106.219 68.1922L104.812 67.6777C104.812 67.6777 113.827 66.5389 116.736 64.9953H116.729Z" fill="#1F1233"/>
</g>
<defs>
<clipPath id="clip0_1133_32265">
<rect width="343.018" height="285" fill="white"/>
</clipPath>
</defs>
</svg>
